<svg width="112" height="107" viewBox="0 0 112 107" fill="none" xmlns="http://www.w3.org/2000/svg">
<path d="M100 0H9V75.5L55.5 106.5L100 75.5V0Z" fill="#C4C4C4"/>
<path d="M88.5 14H20.5V70.0047L55.2473 93L88.5 70.0047V14Z" fill="#75828A"/>
<path d="M55.9993 32.8346C57.9327 32.8346 59.4993 34.4013 59.4993 36.3346C59.4993 38.268 57.9327 39.8346 55.9993 39.8346C54.066 39.8346 52.4993 38.268 52.4993 36.3346C52.4993 34.4013 54.066 32.8346 55.9993 32.8346ZM55.9993 47.8346C60.9493 47.8346 66.166 50.268 66.166 51.3346V53.168H45.8327V51.3346C45.8327 50.268 51.0493 47.8346 55.9993 47.8346ZM55.9993 29.668C52.316 29.668 49.3327 32.6513 49.3327 36.3346C49.3327 40.018 52.316 43.0013 55.9993 43.0013C59.6827 43.0013 62.666 40.018 62.666 36.3346C62.666 32.6513 59.6827 29.668 55.9993 29.668ZM55.9993 44.668C51.5493 44.668 42.666 46.9013 42.666 51.3346V56.3346H69.3327V51.3346C69.3327 46.9013 60.4493 44.668 55.9993 44.668Z" fill="#FFB800"/>
<rect x="74" y="41" width="22" height="7" fill="#FFB800"/>
<rect x="14" y="41" width="22" height="7" fill="#FFB800"/>
<circle cx="109" cy="44" r="3" fill="#C4C4C4"/>
<circle cx="3" cy="44" r="3" fill="#C4C4C4"/>
</svg>
