<svg width="30" height="30" viewBox="0 0 30 30" fill="none" xmlns="http://www.w3.org/2000/svg">
<path d="M16.5625 20.925C16.5625 21.7875 15.9 22.5 15 22.5C14.125 22.5 13.425 21.8 13.425 20.925C13.425 20.0375 14.125 19.3625 15 19.3625C15.8875 19.3625 16.5625 20.05 16.5625 20.925ZM14.9875 7.5C12.775 7.5 11.2625 8.9375 10.7 10.6125L12.75 11.475C13.025 10.6375 13.675 9.625 15 9.625C17.025 9.625 17.425 11.525 16.7125 12.5375C16.0375 13.5 14.875 14.15 14.2625 15.2375C13.775 16.1 13.875 17.1 13.875 17.7125H16.15C16.15 16.55 16.2375 16.3125 16.425 15.95C16.9125 15.05 17.8125 14.625 18.7625 13.2375C19.6125 11.9875 19.2875 10.2875 18.7375 9.3875C18.1 8.3375 16.8375 7.5 14.9875 7.5ZM23.75 6.25H6.25V23.75H23.75V6.25ZM23.75 3.75C25.125 3.75 26.25 4.875 26.25 6.25V23.75C26.25 25.125 25.125 26.25 23.75 26.25H6.25C4.875 26.25 3.75 25.125 3.75 23.75V6.25C3.75 4.875 4.875 3.75 6.25 3.75H23.75Z" fill="#A6A6A6"/>
</svg>
