<svg width="174" height="41" viewBox="0 0 174 41" fill="none" xmlns="http://www.w3.org/2000/svg">
<path d="M88.5101 16.5128L87.3192 17.3986C89.0521 20.6896 89.513 24.5054 88.6136 28.1156C87.7143 31.7259 85.5179 34.877 82.4449 36.9659C79.3718 39.0548 75.6379 39.9348 71.9578 39.4375C68.2777 38.9401 64.9099 37.1004 62.4989 34.2703C60.088 31.4402 58.8032 27.8186 58.8905 24.0986C58.9777 20.3786 60.431 16.8215 62.972 14.1081C65.513 11.3947 68.9634 9.71555 72.6628 9.39204C76.3621 9.06854 80.0506 10.1234 83.0223 12.3547L83.9676 11.2291C80.7165 8.78514 76.6783 7.63209 72.6299 7.99176C68.5815 8.35142 64.8088 10.1984 62.0375 13.1774C59.2662 16.1564 57.692 20.057 57.6177 24.129C57.5435 28.2009 58.9744 32.1565 61.6353 35.235C64.2962 38.3134 67.999 40.2973 72.0316 40.8049C76.0642 41.3125 80.1417 40.308 83.4798 37.9847C86.8178 35.6614 89.1807 32.1833 90.1138 28.2195C91.047 24.2557 90.4845 20.0861 88.5346 16.5128H88.5101ZM87.4481 14.8336C86.8639 14.0128 86.2064 13.247 85.4838 12.5454L84.4894 13.628C85.1685 14.2779 85.7851 14.9905 86.3309 15.7562L87.4481 14.8336Z" fill="#FFB800"/>
<path d="M83.6116 33.3789C83.3722 33.6188 83.1267 33.8464 82.8689 34.0678C82.6111 34.2892 82.4944 34.3876 82.298 34.5353C82.0083 34.7561 81.7071 34.9614 81.3957 35.1504C81.1747 35.298 80.9476 35.4333 80.7082 35.5686C80.346 35.7716 79.9715 35.9623 79.5848 36.1345C79.3025 36.2637 79.014 36.3744 78.7255 36.479C78.202 36.6691 77.6668 36.8253 77.1233 36.9465C76.1723 37.1597 75.2006 37.267 74.226 37.2663C73.6945 37.2678 73.1634 37.2349 72.6361 37.1679C71.4984 37.0344 70.3835 36.749 69.3214 36.3191C67.3105 35.5061 65.5264 34.2164 64.1221 32.5608C63.852 32.2409 63.6004 31.9149 63.361 31.5766C62.9452 30.9731 62.5778 30.3376 62.2622 29.676C62.0482 29.2264 61.8616 28.7642 61.7036 28.292C61.5301 27.8155 61.3866 27.3286 61.2739 26.8342C61.1807 26.4285 61.111 26.0178 61.0652 25.604C61.0015 25.0795 60.9687 24.5516 60.967 24.0232C60.967 23.8694 60.967 23.7095 60.967 23.5557C60.9689 23.237 60.9894 22.9186 61.0284 22.6023C61.0284 22.387 61.0775 22.1717 61.1082 21.9872C61.1388 21.8027 61.2186 21.3721 61.2862 21.0892C61.3537 20.8062 61.3721 20.7078 61.4273 20.5171C61.5071 20.2219 61.5992 19.9328 61.7036 19.6437C61.7599 19.4661 61.8255 19.2916 61.9 19.1208C62.0105 18.8256 62.1394 18.5426 62.2683 18.2658C61.9737 18.192 61.6545 18.1244 61.3598 18.0629C61.222 18.3432 61.099 18.6306 60.9915 18.924L60.8074 19.4161C60.7092 19.7052 60.6232 19.9943 60.5373 20.2895C60.4882 20.4679 60.4391 20.6463 60.4022 20.8247C60.3347 21.1261 60.2733 21.4398 60.2242 21.7227C60.1874 21.9195 60.1628 22.1164 60.1383 22.3378C60.1014 22.6454 60.0769 22.9529 60.0585 23.2666C60.0401 23.5803 60.0585 23.8018 60.0585 24.0724C60.0585 24.343 60.0585 24.6875 60.0585 24.9643C60.0585 25.3764 60.126 25.7885 60.1874 26.1945C60.4739 28.0951 61.1422 29.9176 62.1517 31.552C62.3665 31.8965 62.5998 32.2286 62.8392 32.5546C63.9679 34.0739 65.3883 35.3518 67.017 36.313C68.6457 37.2743 70.4497 37.8996 72.3231 38.1521C72.9334 38.2351 73.5487 38.2762 74.1646 38.2751C74.5083 38.2751 74.8337 38.2751 75.1652 38.2382C76.3479 38.158 77.5155 37.9264 78.6395 37.5493C79.0692 37.4016 79.4866 37.2417 79.8979 37.0633C80.168 36.9403 80.4258 36.8111 80.6897 36.682C80.9537 36.5528 81.3527 36.3129 81.6719 36.1099C81.899 35.9746 82.12 35.8208 82.3349 35.6732C82.5497 35.5256 82.8934 35.2549 83.1574 35.0581C83.4214 34.8613 83.538 34.7382 83.7221 34.566C83.9063 34.3938 84.2009 34.1108 84.4219 33.8771C84.1948 33.6372 83.9002 33.5019 83.6116 33.3789Z" fill="#FFB800"/>
<path d="M84.4894 33.7848C84.2684 34.0186 84.0351 34.2523 83.7896 34.4737C83.4765 34.3261 83.1757 34.1847 82.8688 34.0678C81.9732 33.7054 81.0545 33.4033 80.1188 33.1636L79.1121 32.9114L78.4983 32.7699H78.3755L77.3749 32.5362C75.9298 32.2645 74.5528 31.7084 73.3236 30.9C72.1464 30.0405 71.2666 28.8341 70.8068 27.4493L70.6595 27.0802C70.5797 26.8896 70.506 26.6989 70.4262 26.502C70.4262 26.4651 70.4262 26.4221 70.3771 26.3852C70.2605 26.1022 70.1377 25.8193 69.9965 25.5179C69.357 24.1771 68.5303 22.9345 67.5412 21.8273C66.3933 20.5171 64.3246 19.656 61.9429 19.0901C61.6421 19.0163 61.3291 18.9548 61.0344 18.8932C61.1419 18.5999 61.2649 18.3124 61.4027 18.0321C61.7097 18.0936 62.0166 18.1613 62.3112 18.2351C64.7666 18.8502 66.9703 19.7913 68.2287 21.2183C69.352 22.4645 70.2793 23.8749 70.9787 25.401C71.1199 25.7147 71.2488 26.0161 71.3593 26.2991L71.4698 26.5697C71.4698 26.6189 71.5127 26.6681 71.5311 26.7235C71.6539 27.031 71.7705 27.3386 71.8933 27.5969C72.2931 28.6243 72.9872 29.5103 73.8883 30.1434C74.7543 30.7266 75.7165 31.1515 76.7304 31.3982C77.1355 31.5151 77.5529 31.6135 77.9581 31.7181L78.5167 31.8473L78.7008 31.8903L79.7873 32.1487C81.074 32.4518 82.3327 32.8633 83.5502 33.3789C83.9001 33.5019 84.1947 33.6372 84.4894 33.7848Z" fill="#FFB800"/>
<path d="M83.2249 34.9659C82.9609 35.1812 82.6847 35.3965 82.4023 35.581C82.0647 35.4211 81.7271 35.2796 81.3956 35.1504C80.6027 34.8444 79.7932 34.5836 78.9709 34.3693C78.6333 34.2831 78.2957 34.197 77.9704 34.1232L77.1724 33.9325C75.2204 33.4835 73.5446 33.096 72.1143 32.0872C71.5566 31.6898 71.0655 31.2061 70.6595 30.654C70.5823 30.5569 70.5125 30.4541 70.4508 30.3465C70.0466 29.6899 69.7113 28.9932 69.4502 28.2675C69.3459 28.0153 69.2477 27.7569 69.1372 27.4924C69.0267 27.2279 68.9285 27.0065 68.8057 26.7543C68.7878 26.7061 68.7673 26.6588 68.7443 26.6128C68.6338 26.3914 68.5172 26.1638 68.3883 25.9239C67.7981 24.8808 67.0962 23.9053 66.2951 23.0145C65.2638 21.8458 63.496 21.0277 61.4273 20.468C61.1388 20.388 60.8135 20.3142 60.5372 20.2404C60.6232 19.9451 60.7091 19.6253 60.8073 19.3669L61.7035 19.5945C63.9195 20.2096 65.8347 21.1077 66.9826 22.4117C67.8615 23.3959 68.6255 24.4772 69.2599 25.6348C69.4195 25.9301 69.5546 26.2069 69.6774 26.4775C69.8247 26.7974 69.9536 27.0926 70.0702 27.3879C70.1439 27.5601 70.2114 27.7323 70.2789 27.8984C70.8375 29.3008 71.2365 30.3096 72.6299 31.3184C73.9067 32.2472 75.5027 32.6162 77.3504 33.0468L77.6143 33.1083L78.6886 33.3605L79.2226 33.4958L80.1986 33.7726C80.9029 33.9859 81.5955 34.2364 82.2734 34.523C82.6049 34.6645 82.9118 34.8306 83.2249 34.9659Z" fill="#FFB800"/>
<path d="M81.7393 36.0607C81.4202 36.2637 81.0887 36.4482 80.7572 36.6328C80.3582 36.4605 79.9715 36.3068 79.5848 36.1776C78.3986 35.7729 77.1892 35.4402 75.9631 35.1811C74.0172 34.7321 72.3414 34.3446 70.9111 33.3051C70.6968 33.147 70.4918 32.9766 70.2973 32.7945C70.1609 32.6752 70.0318 32.5479 69.9106 32.4132C69.751 32.2453 69.6033 32.0665 69.4686 31.878C69.3274 31.6873 69.2047 31.4967 69.088 31.306C68.9883 31.1369 68.8981 30.9624 68.8179 30.7831C68.6277 30.4018 68.4681 30.0081 68.3023 29.6022L68.2593 29.4853C68.0568 28.9809 67.8481 28.4519 67.5718 27.886C67.4491 27.6277 67.3079 27.3509 67.1483 27.0679C66.5748 26.058 65.8935 25.1134 65.1165 24.2508C64.0144 23.1341 62.6382 22.328 61.1265 21.9134L60.2426 21.6489C60.2917 21.3475 60.353 21.0338 60.4206 20.7509C60.7214 20.8308 61.0344 20.9231 61.3045 21.0153C63.0018 21.4606 64.5504 22.3501 65.7917 23.5926C66.6517 24.5532 67.4012 25.6075 68.0261 26.7358C68.1857 27.0249 68.3269 27.314 68.4558 27.5846C68.7136 28.1259 68.9162 28.6303 69.0696 29.0916C69.1985 29.4115 69.3213 29.7067 69.4502 30.002C69.6167 30.4085 69.8222 30.7979 70.064 31.1645C70.15 31.2814 70.2421 31.4044 70.3403 31.5213C70.4385 31.6381 70.506 31.7119 70.592 31.8104C70.8094 32.0305 71.0411 32.236 71.2856 32.4255L71.3961 32.5054C72.679 33.4342 74.275 33.8033 76.1227 34.2339C76.7365 34.3753 77.3504 34.523 78.044 34.7013C78.3632 34.7813 78.6579 34.8736 79.0139 34.9781C79.5479 35.1442 80.1004 35.3287 80.659 35.5563C81.0273 35.7224 81.3956 35.87 81.7393 36.0607Z" fill="#FFB800"/>
<path d="M79.9655 36.9894C79.5542 37.1678 79.1368 37.3278 78.7071 37.4754C78.1669 37.2785 77.639 37.1063 77.1234 36.9648C76.3008 36.725 75.5089 36.5404 74.7601 36.3497C72.8142 35.9007 71.1384 35.5071 69.7081 34.4675C69.0457 34.0065 68.4804 33.4192 68.0446 32.7391C67.851 32.4432 67.6807 32.1327 67.5351 31.8103C67.3632 31.4474 67.2159 31.0845 67.0563 30.697C67.0579 30.6806 67.0579 30.6641 67.0563 30.6478C66.9642 30.4079 66.8599 30.1557 66.7494 29.8912C66.5775 29.4729 66.3811 29.0362 66.1356 28.5687C65.5248 27.4323 64.7809 26.373 63.9196 25.4133C63.1043 24.5661 62.1072 23.9161 61.0038 23.5126C60.7153 23.3896 60.39 23.285 60.0953 23.1743C60.0953 22.8667 60.1383 22.5592 60.1751 22.2455C60.4759 22.3439 60.789 22.4485 61.0652 22.5592C62.4062 23.0167 63.62 23.7861 64.6071 24.8043C65.7835 26.1037 66.7431 27.5845 67.4492 29.19C67.6211 29.5836 67.7684 29.9588 67.9096 30.3095L67.9525 30.4079C68.0385 30.6293 68.1183 30.8323 68.2103 31.023C68.3191 31.2948 68.4441 31.5598 68.5848 31.8164L68.7505 32.1117C68.8871 32.3258 69.0367 32.5312 69.1986 32.7268C69.5101 33.0963 69.8669 33.425 70.2606 33.7048C71.5374 34.6275 73.1334 35.0027 74.9872 35.4271C76.2577 35.6986 77.5119 36.0415 78.7439 36.4543C79.1306 36.6757 79.5419 36.8049 79.9655 36.9894Z" fill="#FFB800"/>
<path d="M67.934 30.4265C67.5288 30.2665 67.1298 30.0881 66.7063 29.9098C64.8144 29.0202 62.9905 27.9922 61.2492 26.8343C60.887 26.5944 60.531 26.3545 60.1873 26.1146C60.1259 25.7086 60.0829 25.2965 60.0583 24.8844L61.0651 25.6041C62.6815 26.7165 64.3691 27.7213 66.117 28.6119C66.5467 28.8272 66.9825 29.0425 67.4306 29.227C67.6025 29.6207 67.7498 29.9959 67.891 30.3465L67.934 30.4265Z" fill="#FFB800"/>
<path d="M68.7504 32.1425C68.3453 32.0441 67.9463 31.9395 67.5596 31.8288C67.1299 31.7058 66.7186 31.5766 66.3319 31.4351H66.2705C64.9051 30.965 63.5774 30.3913 62.2989 29.719C61.8447 29.4791 61.415 29.2392 60.9976 28.9932C60.8294 28.5415 60.6839 28.0817 60.5618 27.6154C60.9424 27.8614 61.3291 28.1013 61.7403 28.335C63.4373 29.3274 65.236 30.1337 67.1053 30.7401C67.4798 30.8631 67.8542 30.9738 68.2409 31.0784C68.3497 31.3502 68.4747 31.6152 68.6154 31.8719L68.7504 32.1425Z" fill="#FFB800"/>
<path d="M69.1802 32.7699C68.7935 32.7699 68.4129 32.7699 68.0446 32.7699H67.0317L65.8961 32.7269C65.2823 32.6961 64.6685 32.6592 64.116 32.6162C63.6863 32.6162 63.2689 32.5547 62.8883 32.5178C62.6489 32.1917 62.4157 31.8596 62.2008 31.5151L63.3732 31.632C64.0239 31.6874 64.7114 31.7366 65.4419 31.7796L66.4732 31.8288C66.823 31.8288 67.1791 31.8288 67.5535 31.8657C67.885 31.8657 68.2287 31.8657 68.5786 31.8657L68.7444 32.161C68.8772 32.3727 69.0227 32.576 69.1802 32.7699Z" fill="#FFB800"/>
<path d="M79.8487 32.1487L78.7622 31.8904C78.1201 30.3351 77.1087 28.9605 75.8157 27.8861C74.5712 26.8147 72.975 26.2428 71.3347 26.2807C71.2242 25.9977 71.0953 25.6656 70.9541 25.3826C71.9363 25.3094 72.9233 25.4309 73.8586 25.7402C74.7939 26.0494 75.6592 26.5403 76.405 27.1849C77.9878 28.4896 79.1797 30.2075 79.8487 32.1487Z" fill="#FFB800"/>
<path d="M78.0195 31.7181C77.5837 31.6135 77.1663 31.5151 76.7918 31.3983C76.2102 30.4929 75.4963 29.6801 74.674 28.9871C73.8771 28.3022 72.9277 27.8191 71.9056 27.5785C71.7828 27.3017 71.6662 27.0126 71.5434 26.705C71.5434 26.6497 71.5005 26.6005 71.4821 26.5513C72.8818 26.7603 74.1932 27.364 75.2633 28.292C76.3926 29.2466 77.3282 30.4097 78.0195 31.7181Z" fill="#FFB800"/>
<path d="M75.2265 38.1643C74.8951 38.1643 74.5697 38.2012 74.226 38.2012C73.61 38.2024 72.9948 38.1613 72.3844 38.0782C71.3062 37.6016 70.278 37.0185 69.3152 36.3375C67.9416 35.3653 66.7785 34.1245 65.8961 32.6899L67.0317 32.733C68.4702 34.6866 70.3998 36.2232 72.6238 37.1863C73.4676 37.5726 74.3373 37.8994 75.2265 38.1643Z" fill="#FFB800"/>
<path d="M73.5078 24.8782L72.851 24.2631L92.0274 1.3875C92.1187 1.27456 92.2324 1.18182 92.3613 1.11512C92.4902 1.04842 92.6315 1.00922 92.7763 0.999991C92.9212 0.987216 93.0672 1.00407 93.2055 1.04954C93.3437 1.095 93.4713 1.16813 93.5804 1.26448C93.6891 1.36094 93.7775 1.47801 93.8407 1.60892C93.904 1.73984 93.9407 1.882 93.9487 2.02721C93.9588 2.17607 93.9384 2.32543 93.8888 2.46611C93.8392 2.60679 93.7614 2.73583 93.6602 2.84529L73.5078 24.8782Z" fill="#FFB800"/>
<path d="M75.3125 25.6656L74.7784 24.989L97.9265 6.10537C98.0385 6.01289 98.168 5.94398 98.3072 5.90277C98.4464 5.86155 98.5925 5.84887 98.7367 5.86548C98.881 5.88139 99.0206 5.92609 99.1474 5.99696C99.2741 6.06782 99.3854 6.16341 99.4746 6.27808C99.5639 6.39275 99.6293 6.52418 99.6671 6.6646C99.7048 6.80503 99.7141 6.95161 99.6943 7.09568C99.6745 7.23923 99.6263 7.37737 99.5525 7.50201C99.4787 7.62664 99.3809 7.73527 99.2646 7.8215L75.3125 25.6656ZM98.6385 6.44983L98.9393 7.35403L98.6385 6.44983Z" fill="#FFB800"/>
<path d="M18.7222 27.3817C18.7452 28.5333 18.4477 29.6686 17.8629 30.6602C17.3134 31.6037 16.5204 32.3814 15.5671 32.9114C14.6108 33.4534 13.5289 33.7335 12.4303 33.7234C11.3877 33.7267 10.3635 33.4483 9.46548 32.9176C8.5226 32.3795 7.73891 31.6006 7.19426 30.6602C6.614 29.6669 6.31873 28.5324 6.34102 27.3817V9.18701H1.53041e-05V27.7446C-0.0294993 29.9369 0.527982 32.0971 1.61442 34.0002C2.67648 35.8276 4.21493 37.331 6.06479 38.3489C8.01762 39.4093 10.2095 39.9494 12.4303 39.9174C14.6576 39.9539 16.8565 39.4137 18.8143 38.3489C20.654 37.3259 22.1833 35.8233 23.2401 34.0002C24.3288 32.098 24.8865 29.9372 24.8545 27.7446V9.18701H18.7161L18.7222 27.3817Z" fill="white"/>
<path d="M52.7905 13.788C51.5588 12.3431 50.0162 11.1969 48.2787 10.4357C46.3256 9.59367 44.2171 9.17446 42.0912 9.20546H29.9678V39.6714H42.0666C44.8434 39.7619 47.5858 39.0348 49.9545 37.5801C52.0542 36.2163 53.725 34.284 54.7732 32.0072C55.8479 29.634 56.3905 27.0536 56.363 24.4477C56.3733 22.4864 56.0686 20.5362 55.4607 18.6719C54.8912 16.8874 53.9847 15.2294 52.7905 13.788ZM49.9668 24.4477C49.9852 26.035 49.6932 27.6106 49.1074 29.0855C48.5916 30.3889 47.6952 31.5058 46.5354 32.2902C45.1405 33.1449 43.5218 33.5606 41.8886 33.4835H36.3026V15.418H41.8641C43.4998 15.3458 45.1186 15.775 46.5047 16.6482C47.6722 17.4347 48.5785 18.5528 49.1074 19.859C49.6814 21.3194 49.965 22.8782 49.9422 24.4477H49.9668Z" fill="white"/>
<path d="M119.264 9.2301V39.6714H113.782L99.4058 20.7694V39.6714H93.0709V13.8495L98.7613 9.61146L112.923 28.6119V9.2301H119.264Z" fill="white"/>
<path d="M123.315 39.6714H143.179V33.4774H129.656V27.1787H140.945V20.9908H129.656V15.418H143.179V9.2301H123.315V39.6714Z" fill="white"/>
<path d="M163.049 24.5584L173.534 9.2301H165.996L159.397 19.3116L152.497 9.2301H144.517L155.21 24.134L144.339 39.6714H151.889L158.93 29.3931L166.008 39.6714H174L163.049 24.5584Z" fill="white"/>
</svg>
