<svg width="84" height="70" viewBox="0 0 84 70" fill="none" xmlns="http://www.w3.org/2000/svg">
<g clip-path="url(#clip0_1996:624)">
<path d="M75.5 58.0004H8.5C3.8 58.0004 0 54.2004 0 49.5004V9.40039C0 4.70039 3.8 0.900391 8.5 0.900391H75.6C80.3 0.900391 84.1 4.70039 84.1 9.40039V49.6004C84 54.2004 80.2 58.0004 75.5 58.0004Z" fill="#42A4F5"/>
<path d="M75.5 57.1H8.5C3.8 57.1 0 53.3 0 48.6V8.5C0 3.8 3.8 0 8.5 0H75.6C80.2 0 84 3.8 84 8.5V48.7C84 53.3 80.2 57.1 75.5 57.1Z" fill="#8FC9F7"/>
<path d="M27.9998 7.5H9.6998C8.3998 7.5 7.2998 8.6 7.2998 9.9V32C7.2998 33.1 7.9998 34 8.9998 34.3C9.0998 28.9 13.4998 24.5 18.8998 24.5C24.2998 24.5 28.6998 28.9 28.7998 34.3C29.7998 34 30.4998 33.1 30.4998 32V10C30.3998 8.6 29.3998 7.5 27.9998 7.5ZM18.7998 22.8C15.0998 22.8 12.0998 19.8 12.0998 16.1C12.0998 12.4 15.0998 9.4 18.7998 9.4C22.4998 9.4 25.4998 12.4 25.4998 16.1C25.4998 19.8 22.5998 22.8 18.7998 22.8Z" fill="#E3F1FC"/>
<path d="M18.7996 9.40039C15.0996 9.40039 12.0996 12.4004 12.0996 16.1004C12.0996 19.8004 15.0996 22.8004 18.7996 22.8004C22.4996 22.8004 25.4996 19.8004 25.4996 16.1004C25.4996 12.3004 22.5996 9.40039 18.7996 9.40039Z" fill="#64B4F5"/>
<path d="M18.8004 24.5C13.4004 24.5 9.00039 28.9 8.90039 34.3C9.10039 34.4 9.30039 34.4 9.60039 34.4H27.9004C28.1004 34.4 28.4004 34.3 28.6004 34.3C28.7004 28.9 24.3004 24.5 18.8004 24.5Z" fill="#64B4F5"/>
<path d="M70.8996 7.5H38.0996V12.4H70.9996V7.5H70.8996Z" fill="#64B4F5"/>
<path d="M70.8996 14.9004H38.0996V19.8004H70.9996V14.9004H70.8996Z" fill="#64B4F5"/>
<path d="M31.2998 41.5996H7.2998V46.4996H31.2998V41.5996Z" fill="#64B4F5"/>
<path d="M58.5 41.5996H34.5V46.4996H58.5V41.5996Z" fill="#64B4F5"/>
<path d="M76.4002 41.5996H61.7002V46.4996H76.4002V41.5996Z" fill="#64B4F5"/>
<path d="M75.1998 32.9004H60.4998C59.7998 32.9004 59.2998 32.4004 59.2998 31.7004V23.6004C59.2998 22.9004 59.7998 22.4004 60.4998 22.4004H75.2998C75.9998 22.4004 76.4998 22.9004 76.4998 23.6004V31.7004C76.3998 32.4004 75.7998 32.9004 75.1998 32.9004Z" fill="#FFE082"/>
<path d="M37 48C44.1797 48 50 42.1797 50 35C50 27.8203 44.1797 22 37 22C29.8203 22 24 27.8203 24 35C24 42.1797 29.8203 48 37 48Z" fill="white"/>
</g>
<path d="M42 48C36.47 48 32 52.47 32 58C32 63.53 36.47 68 42 68C47.53 68 52 63.53 52 58C52 52.47 47.53 48 42 48ZM47 61.59L45.59 63L42 59.41L38.41 63L37 61.59L40.59 58L37 54.41L38.41 53L42 56.59L45.59 53L47 54.41L43.41 58L47 61.59Z" fill="#E82627"/>
<defs>
<clipPath id="clip0_1996:624">
<rect width="84" height="59" fill="white"/>
</clipPath>
</defs>
</svg>
