		<svg height="512" viewBox="0 0 128 128" width="512" xmlns="http://www.w3.org/2000/svg">
			<g>
				<g>
					<path
						d="m35.4 17.592h64.674a8.563 8.563 0 0 1 8.563 8.563v31.237a8.564 8.564 0 0 1 -8.564 8.564h-64.673a8.564 8.564 0 0 1 -8.564-8.564v-31.236a8.564 8.564 0 0 1 8.564-8.564z"
						fill="#80b4fb"
						transform="matrix(.968 -.25 .25 .968 -8.297 18.273)"
					/>
					<rect
						fill="#e2c986"
						height="13.564"
						rx="3"
						transform="matrix(.968 -.25 .25 .968 -3.563 23.625)"
						width="13.564"
						x="84.373"
						y="19.045"
					/>
				</g>
				<g>
					<g>
						<path
							d="m113.211 46.151h-90.95a4.989 4.989 0 0 0 -5 5v63.72a5 5 0 0 0 5 5h90.95a5 5 0 0 0 5-5v-63.72a5 5 0 0 0 -5-5z"
							fill="#e28424"
						/>
						<path d="m113.21 46.15h-25v73.72h25a5 5 0 0 0 5-5v-63.72a5 5 0 0 0 -5-5z" fill="#ffd064" />
						<path d="m27.86 51.15v63.72a5 5 0 0 0 5 5h55.35v-73.72h-55.35a5 5 0 0 0 -5 5z" fill="#e49542" />
					</g>
					<g>
						<path
							d="m37.107 70.282h-24.318a3 3 0 0 0 -3 3v19a3 3 0 0 0 3 3h24.318a12.5 12.5 0 0 0 12.5-12.5 12.5 12.5 0 0 0 -12.5-12.5z"
							fill="#fece64"
						/>
						<path d="m33.588 77.055a5.728 5.728 0 1 0 5.727 5.727 5.727 5.727 0 0 0 -5.727-5.727z" fill="#de656d" />
					</g>
				</g>
			</g>
		</svg>
