<svg width="30" height="30" viewBox="0 0 30 30" fill="none" xmlns="http://www.w3.org/2000/svg">
<g id="Group 282">
<path id="&#239;&#130;&#153;" d="M20.5508 11.9062C21.0977 11.4961 21.5899 11.0039 21.9727 10.4297C21.4805 10.6484 20.9063 10.8125 20.3321 10.8672C20.9337 10.5117 21.3712 9.96484 21.5899 9.28125C21.043 9.60938 20.4141 9.85547 19.7852 9.99219C19.2383 9.41797 18.5001 9.08984 17.6797 9.08984C16.0938 9.08984 14.8087 10.375 14.8087 11.9609C14.8087 12.1797 14.836 12.3984 14.8907 12.6172C12.5118 12.4805 10.379 11.332 8.95709 9.60938C8.711 10.0195 8.57428 10.5117 8.57428 11.0586C8.57428 12.043 9.06647 12.918 9.85944 13.4375C9.39459 13.4102 8.92975 13.3008 8.54694 13.082V13.1094C8.54694 14.5039 9.53131 15.6523 10.8438 15.9258C10.6251 15.9805 10.3516 16.0352 10.1055 16.0352C9.91412 16.0352 9.75006 16.0078 9.55865 15.9805C9.91412 17.1289 10.9805 17.9492 12.2383 17.9766C11.254 18.7422 10.0235 19.207 8.68365 19.207C8.43756 19.207 8.21881 19.1797 8.00006 19.1523C9.25787 19.9727 10.7618 20.4375 12.4024 20.4375C17.6797 20.4375 20.5508 16.0898 20.5508 12.2891C20.5508 12.1523 20.5508 12.043 20.5508 11.9062Z" fill="#A6A6A6"/>
<circle id="Ellipse 28" cx="15" cy="15" r="14.5" stroke="#A6A6A6"/>
</g>
</svg>
