<svg width="75" height="71" viewBox="0 0 75 71" fill="none" xmlns="http://www.w3.org/2000/svg">
<path d="M14.0626 23.7812H60.9374L75 37.8438H0L14.0626 23.7812Z" fill="#F4B459"/>
<path d="M16.4062 28.4688H58.5937L70.3124 40.1875C70.3124 40.1875 69.3748 51.9062 67.7343 51.9062H6.79684C5.39053 51.9062 4.6875 40.1875 4.6875 40.1875L16.4062 28.4688Z" fill="#D07C40"/>
<path d="M51.5623 37.8438V42.5312C51.5623 45.1093 49.453 47.2186 46.8749 47.2186H28.1249C25.5468 47.2186 23.4374 45.1093 23.4374 42.5312V37.8438H0V65.9686C0 68.5467 2.10934 70.6561 4.68744 70.6561H70.3123C72.8904 70.6561 74.9998 68.5467 74.9998 65.9686V37.8438H51.5623Z" fill="#F4B459"/>
<path d="M51.0934 16.7502H44.5309V2.68759C44.5309 1.28129 43.5934 0.34375 42.1871 0.34375H32.8122C31.4059 0.34375 30.4684 1.28129 30.4684 2.68759V16.7502H23.9061C21.328 16.7502 20.3904 18.3907 21.5622 20.5001L35.156 33.8593C36.3278 35.9687 38.4372 35.9687 39.8435 33.8593L53.4373 20.5001C54.6091 18.3907 53.6715 16.7502 51.0934 16.7502Z" fill="#475F6C"/>
</svg>
