<svg width="511" height="265" viewBox="0 0 511 265" fill="none" xmlns="http://www.w3.org/2000/svg">
<g id="Group 232" opacity="0.05">
<path id="Vector" d="M374.472 -31.9226L360.038 -21.1867C381.042 18.703 386.628 64.9531 375.727 108.712C364.827 152.471 338.205 190.665 300.957 215.984C263.709 241.304 218.452 251.97 173.846 245.942C129.241 239.913 88.4202 217.614 59.1973 183.311C29.9744 149.009 14.4017 105.112 15.4596 60.023C16.5175 14.9338 34.1317 -28.1809 64.9311 -61.0695C95.7305 -93.9581 137.552 -114.311 182.391 -118.232C227.23 -122.153 271.937 -109.367 307.956 -82.3217L319.414 -95.9653C280.008 -125.588 231.062 -139.564 181.993 -135.204C132.923 -130.845 87.1946 -108.458 53.6041 -72.3504C20.0136 -36.2427 0.93327 11.0358 0.0333435 60.3907C-0.866583 109.746 16.4774 157.691 48.7292 195.004C80.981 232.317 125.863 256.363 174.741 262.516C223.619 268.668 273.041 256.494 313.501 228.333C353.961 200.173 382.6 158.016 393.911 109.971C405.221 61.9269 398.404 11.3885 374.769 -31.9226H374.472ZM361.6 -52.2761C354.519 -62.2244 346.549 -71.5073 337.791 -80.0105L325.738 -66.8889C333.97 -59.0113 341.443 -50.3745 348.059 -41.0929L361.6 -52.2761Z" fill="#FFB800"/>
<path id="Vector_2" d="M315.098 172.507C312.197 175.415 309.221 178.173 306.096 180.857C302.971 183.541 301.557 184.734 299.176 186.523C295.664 189.2 292.013 191.689 288.239 193.979C285.561 195.768 282.808 197.408 279.906 199.049C275.516 201.509 270.978 203.82 266.29 205.908C262.868 207.473 259.371 208.815 255.874 210.083C249.529 212.388 243.043 214.28 236.455 215.749C224.927 218.334 213.15 219.634 201.337 219.626C194.895 219.644 188.458 219.245 182.067 218.433C168.276 216.815 154.764 213.355 141.89 208.144C117.516 198.29 95.8914 182.659 78.8706 162.591C75.5969 158.714 72.5464 154.763 69.6447 150.663C64.6054 143.348 60.1522 135.645 56.3267 127.625C53.733 122.176 51.472 116.574 49.5561 110.85C47.4534 105.075 45.714 99.1738 44.3479 93.1807C43.2181 88.2635 42.3735 83.2848 41.8183 78.2698C41.0466 71.9118 40.649 65.5139 40.6278 59.1092C40.6278 57.2453 40.6278 55.3068 40.6278 53.443C40.6509 49.5797 40.8993 45.7212 41.3718 41.887C41.3718 39.2775 41.9671 36.6681 42.3391 34.4315C42.7111 32.1948 43.6783 26.976 44.4967 23.5465C45.3151 20.117 45.5383 18.9241 46.208 16.6129C47.1752 13.0342 48.2912 9.53016 49.5561 6.02608C50.2392 3.87364 51.0339 1.75837 51.9369 -0.311089C53.2762 -3.88972 54.8387 -7.31924 56.4011 -10.6742C52.8298 -11.5689 48.9609 -12.389 45.3895 -13.1345C43.7184 -9.73682 42.2283 -6.2527 40.9254 -2.69684L38.6933 3.26756C37.5029 6.77164 36.4613 10.2757 35.4196 13.8543C34.8244 16.0164 34.2292 18.1785 33.7828 20.3406C32.9643 23.9938 32.2203 27.7961 31.6251 31.2256C31.1787 33.6114 30.8811 35.9971 30.5835 38.6811C30.1371 42.4089 29.8394 46.1366 29.6162 49.9389C29.393 53.7412 29.6162 56.4252 29.6162 59.7056C29.6162 62.986 29.6162 67.1611 29.6162 70.516C29.6162 75.5112 30.4347 80.5064 31.1787 85.427C34.652 108.463 42.7515 130.554 54.9875 150.364C57.5915 154.539 60.4189 158.565 63.3206 162.517C77.0013 180.932 94.2182 196.42 113.959 208.072C133.7 219.723 155.566 227.301 178.272 230.362C185.67 231.368 193.128 231.866 200.593 231.853C204.76 231.853 208.703 231.853 212.721 231.405C227.056 230.433 241.208 227.627 254.832 223.055C260.041 221.266 265.1 219.328 270.085 217.165C273.359 215.674 276.483 214.109 279.683 212.543C282.882 210.977 287.718 208.07 291.587 205.609C294.34 203.969 297.019 202.105 299.623 200.316C302.227 198.527 306.393 195.246 309.593 192.861C312.792 190.475 314.206 188.984 316.438 186.896C318.67 184.809 322.241 181.379 324.919 178.546C322.167 175.638 318.595 173.998 315.098 172.507Z" fill="#FFB800"/>
<path id="Vector_3" d="M325.739 177.428C323.061 180.261 320.234 183.094 317.257 185.778C313.463 183.989 309.817 182.274 306.097 180.857C295.242 176.465 284.107 172.804 272.765 169.898L260.563 166.841L253.123 165.126H251.634L239.507 162.293C221.991 159 205.301 152.259 190.401 142.461C176.134 132.044 165.469 117.421 159.896 100.636L158.111 96.1629C157.143 93.8517 156.251 91.5405 155.283 89.1547C155.283 88.7074 155.283 88.1855 154.688 87.7382C153.275 84.3087 151.786 80.8791 150.075 77.226C142.324 60.9751 132.303 45.913 120.314 32.493C106.401 16.6128 81.3274 6.17516 52.4593 -0.683891C48.8135 -1.57855 45.019 -2.3241 41.4477 -3.06964C42.7505 -6.62551 44.2407 -10.1096 45.9118 -13.5073C49.6319 -12.7618 53.3521 -11.9417 56.9234 -11.047C86.6844 -3.59153 113.395 7.81536 128.647 25.1121C142.263 40.2169 153.503 57.3121 161.98 75.8094C163.691 79.6117 165.253 83.2649 166.593 86.6944L167.932 89.9748C167.932 90.5713 168.453 91.1677 168.676 91.8387C170.164 95.5664 171.578 99.2942 173.066 102.426C177.912 114.878 186.325 125.617 197.246 133.291C207.743 140.36 219.406 145.509 231.695 148.5C236.605 149.917 241.665 151.11 246.575 152.377L253.346 153.943L255.578 154.465L268.747 157.596C284.342 161.27 299.599 166.258 314.356 172.507C318.597 173.998 322.168 175.638 325.739 177.428Z" fill="#FFB800"/>
<path id="Vector_4" d="M310.417 191.742C307.217 194.352 303.869 196.961 300.447 199.198C296.355 197.26 292.262 195.545 288.245 193.979C278.634 190.27 268.822 187.109 258.856 184.511C254.764 183.467 250.671 182.423 246.728 181.528L237.056 179.217C213.396 173.775 193.084 169.078 175.748 156.851C168.988 152.034 163.036 146.17 158.115 139.479C157.179 138.303 156.333 137.056 155.585 135.752C150.686 127.794 146.621 119.349 143.458 110.552C142.193 107.495 141.002 104.364 139.663 101.158C138.324 97.9524 137.133 95.2684 135.645 92.2117C135.429 91.6269 135.18 91.0544 134.901 90.4969C133.562 87.8129 132.148 85.0544 130.586 82.1468C123.432 69.5036 114.925 57.679 105.215 46.8823C92.7151 32.7169 71.2872 22.8011 46.2136 16.0166C42.7167 15.0474 38.7734 14.1527 35.4253 13.2581C36.4669 9.67942 37.5085 5.80257 38.699 2.67126L49.5617 5.42979C76.421 12.8853 99.6346 23.7703 113.548 39.5759C124.201 51.5048 133.461 64.6116 141.151 78.6427C143.086 82.2213 144.722 85.5763 146.21 88.8567C147.996 92.7335 149.559 96.3122 150.972 99.8908C151.865 101.978 152.683 104.066 153.502 106.079C160.272 123.077 165.109 135.304 181.998 147.531C197.474 158.789 216.818 163.262 239.213 168.481L242.413 169.227L255.433 172.284L261.906 173.924L273.736 177.279C282.273 179.864 290.667 182.901 298.884 186.374C302.902 188.089 306.622 190.102 310.417 191.742Z" fill="#FFB800"/>
<path id="Vector_5" d="M292.405 205.012C288.536 207.472 284.518 209.709 280.501 211.945C275.665 209.858 270.977 207.994 266.29 206.428C251.912 201.524 237.253 197.49 222.392 194.35C198.807 188.908 178.495 184.211 161.159 171.611C158.561 169.696 156.076 167.63 153.719 165.423C152.066 163.977 150.501 162.433 149.032 160.801C147.097 158.766 145.307 156.599 143.675 154.314C141.963 152.003 140.475 149.692 139.062 147.381C137.853 145.331 136.76 143.216 135.788 141.044C133.481 136.421 131.547 131.65 129.538 126.729L129.017 125.312C126.562 119.199 124.032 112.787 120.684 105.928C119.196 102.797 117.485 99.4419 115.55 96.0124C108.599 83.7708 100.341 72.3217 90.9233 61.8663C77.5648 48.3315 60.885 38.5603 42.5617 33.5354L31.8477 30.3296C32.4429 26.6764 33.187 22.8741 34.0054 19.4446C37.6511 20.4138 41.4457 21.5321 44.7194 22.6504C65.2919 28.0475 84.0625 38.8286 99.1075 53.8889C109.531 65.5313 118.615 78.3107 126.19 91.9865C128.124 95.4905 129.836 98.9946 131.398 102.275C134.523 108.836 136.978 114.949 138.838 120.541C140.401 124.418 141.889 127.996 143.451 131.575C145.469 136.503 147.961 141.222 150.892 145.666C151.933 147.083 153.049 148.574 154.24 149.99C155.43 151.407 156.249 152.301 157.29 153.494C159.926 156.163 162.734 158.653 165.698 160.95L167.037 161.919C182.587 173.177 201.932 177.65 224.327 182.869C231.767 184.584 239.207 186.373 247.615 188.535C251.484 189.504 255.055 190.623 259.37 191.89C265.843 193.903 272.54 196.14 279.31 198.898C283.774 200.911 288.239 202.7 292.405 205.012Z" fill="#FFB800"/>
<path id="Vector_6" d="M270.904 216.269C265.919 218.431 260.859 220.369 255.651 222.158C249.104 219.773 242.705 217.685 236.455 215.97C226.486 213.063 216.888 210.826 207.811 208.515C184.225 203.072 163.913 198.301 146.577 185.701C138.548 180.113 131.696 172.994 126.414 164.751C124.067 161.165 122.003 157.401 120.239 153.493C118.156 149.095 116.37 144.696 114.435 139.999C114.455 139.801 114.455 139.601 114.435 139.403C113.319 136.495 112.055 133.438 110.715 130.232C108.632 125.163 106.251 119.869 103.275 114.203C95.8724 100.429 86.8556 87.589 76.4157 75.9564C66.5337 65.688 54.4477 57.8096 41.0745 52.919C37.5776 51.4279 33.6343 50.1604 30.063 48.8184C30.063 45.0907 30.5838 41.363 31.0302 37.5607C34.6759 38.7535 38.4705 40.021 41.8186 41.363C58.0727 46.9089 72.7844 56.2344 84.7488 68.5755C99.0075 84.3247 110.64 102.274 119.197 121.733C121.28 126.505 123.066 131.052 124.777 135.302L125.298 136.495C126.34 139.179 127.307 141.639 128.423 143.95C129.741 147.245 131.257 150.457 132.962 153.568L134.97 157.147C136.626 159.742 138.439 162.232 140.402 164.602C144.177 169.081 148.502 173.064 153.273 176.456C168.749 187.64 188.094 192.187 210.563 197.332C225.963 200.623 241.165 204.779 256.098 209.782C260.785 212.466 265.77 214.032 270.904 216.269Z" fill="#FFB800"/>
<path id="Vector_7" d="M125.073 136.721C120.163 134.782 115.326 132.62 110.193 130.458C87.2618 119.675 65.1542 107.216 44.0489 93.1807C39.6591 90.2731 35.3438 87.3655 31.1773 84.4578C30.4333 79.5372 29.9124 74.542 29.6148 69.5469L41.8168 78.2698C61.4089 91.7531 81.864 103.932 103.05 114.727C108.258 117.337 113.541 119.946 118.972 122.183C121.055 126.954 122.841 131.502 124.552 135.752L125.073 136.721Z" fill="#FFB800"/>
<path id="Vector_8" d="M134.972 157.52C130.061 156.327 125.225 155.06 120.537 153.718C115.329 152.227 110.344 150.661 105.657 148.946H104.913C88.3628 143.248 72.2701 136.294 56.7745 128.145C51.2687 125.238 46.0606 122.33 41.0012 119.348C38.962 113.873 37.1989 108.3 35.7187 102.648C40.3316 105.63 45.019 108.537 50.0039 111.37C70.5726 123.399 92.3742 133.172 115.032 140.521C119.57 142.013 124.109 143.355 128.796 144.622C130.114 147.917 131.63 151.128 133.335 154.24L134.972 157.52Z" fill="#FFB800"/>
<path id="Vector_9" d="M140.182 165.125C135.495 165.125 130.882 165.125 126.418 165.125H114.141L100.377 164.603C92.9368 164.231 85.4965 163.783 78.8003 163.261C73.5922 163.261 68.5328 162.516 63.9199 162.068C61.0182 158.117 58.1909 154.091 55.5868 149.916L69.7976 151.333C77.6843 152.004 86.0174 152.6 94.8713 153.122L107.371 153.718C111.612 153.718 115.927 153.718 120.466 154.166C124.483 154.166 128.65 154.166 132.891 154.166L134.9 157.744C136.509 160.31 138.273 162.775 140.182 165.125Z" fill="#FFB800"/>
<path id="Vector_10" d="M269.493 157.596L256.323 154.465C248.541 135.613 236.281 118.952 220.61 105.93C205.526 92.9436 186.178 86.012 166.296 86.4708C164.957 83.0413 163.395 79.0153 161.683 75.5858C173.588 74.6984 185.551 76.1709 196.888 79.9192C208.224 83.6674 218.713 89.6179 227.753 97.4304C246.938 113.244 261.383 134.067 269.493 157.596Z" fill="#FFB800"/>
<path id="Vector_11" d="M247.319 152.377C242.037 151.11 236.977 149.917 232.439 148.5C225.389 137.527 216.737 127.676 206.77 119.275C197.11 110.974 185.603 105.118 173.214 102.202C171.726 98.8469 170.313 95.3428 168.825 91.6151C168.825 90.9441 168.304 90.3477 168.081 89.7512C185.046 92.2847 200.942 99.6025 213.913 110.85C227.6 122.421 238.941 136.519 247.319 152.377Z" fill="#FFB800"/>
<path id="Vector_12" d="M213.467 230.511C209.45 230.511 205.506 230.958 201.34 230.958C193.874 230.972 186.417 230.473 179.019 229.467C165.95 223.69 153.488 216.622 141.818 208.368C125.168 196.584 111.071 181.545 100.376 164.157L114.14 164.679C131.576 188.358 154.964 206.983 181.921 218.657C192.148 223.339 202.689 227.3 213.467 230.511Z" fill="#FFB800"/>
<path id="Vector_13" d="M192.634 69.4722L184.673 62.0167L417.106 -215.253C418.213 -216.622 419.591 -217.746 421.153 -218.554C422.716 -219.363 424.428 -219.838 426.183 -219.95C427.94 -220.105 429.709 -219.9 431.385 -219.349C433.06 -218.798 434.606 -217.912 435.93 -216.744C437.246 -215.575 438.319 -214.156 439.085 -212.569C439.851 -210.982 440.296 -209.259 440.394 -207.499C440.516 -205.695 440.269 -203.884 439.668 -202.179C439.066 -200.474 438.123 -198.91 436.897 -197.583L192.634 69.4722Z" fill="#FFB800"/>
<path id="Vector_14" d="M214.51 79.0162L208.037 70.8152L488.609 -158.068C489.967 -159.189 491.536 -160.024 493.224 -160.524C494.911 -161.024 496.682 -161.177 498.43 -160.976C500.178 -160.783 501.87 -160.241 503.407 -159.382C504.943 -158.523 506.292 -157.365 507.373 -155.975C508.455 -154.585 509.248 -152.992 509.706 -151.29C510.163 -149.588 510.276 -147.811 510.036 -146.065C509.796 -144.325 509.212 -142.651 508.318 -141.14C507.423 -139.629 506.237 -138.313 504.828 -137.267L214.51 79.0162ZM497.239 -153.893L500.885 -142.934L497.239 -153.893Z" fill="#FFB800"/>
</g>
</svg>
