<svg width="511" height="324" viewBox="0 0 511 324" fill="none" xmlns="http://www.w3.org/2000/svg">
<g id="Group 1" opacity="0.05">
<path id="Vector" d="M374.472 188.077L360.038 198.813C381.042 238.703 386.628 284.953 375.727 328.712C364.827 372.471 338.205 410.665 300.957 435.984C263.709 461.304 218.452 471.97 173.846 465.942C129.241 459.913 88.4202 437.614 59.1973 403.311C29.9744 369.009 14.4017 325.112 15.4596 280.023C16.5175 234.934 34.1317 191.819 64.9311 158.93C95.7305 126.042 137.552 105.689 182.391 101.768C227.23 97.8472 271.937 110.633 307.956 137.678L319.414 124.035C280.008 94.4121 231.062 80.4363 181.993 84.7957C132.923 89.1552 87.1946 111.542 53.6041 147.65C20.0136 183.757 0.93327 231.036 0.0333435 280.391C-0.866583 329.746 16.4774 377.691 48.7292 415.004C80.981 452.317 125.863 476.363 174.741 482.516C223.619 488.668 273.041 476.494 313.501 448.333C353.961 420.173 382.6 378.016 393.911 329.971C405.221 281.927 398.404 231.388 374.769 188.077H374.472ZM361.6 167.724C354.519 157.776 346.549 148.493 337.791 139.989L325.738 153.111C333.97 160.989 341.443 169.625 348.059 178.907L361.6 167.724Z" fill="#FFB800"/>
<path id="Vector_2" d="M315.098 392.507C312.197 395.415 309.221 398.173 306.096 400.857C302.971 403.541 301.557 404.734 299.176 406.523C295.664 409.2 292.013 411.689 288.239 413.979C285.561 415.768 282.808 417.408 279.906 419.049C275.516 421.509 270.978 423.82 266.29 425.908C262.868 427.473 259.371 428.815 255.874 430.083C249.529 432.388 243.043 434.28 236.455 435.749C224.927 438.334 213.15 439.634 201.337 439.626C194.895 439.644 188.458 439.245 182.067 438.433C168.276 436.815 154.764 433.355 141.889 428.144C117.516 418.29 95.8913 402.659 78.8706 382.591C75.5969 378.714 72.5464 374.763 69.6447 370.663C64.6054 363.348 60.1521 355.645 56.3267 347.625C53.733 342.176 51.4719 336.574 49.556 330.85C47.4534 325.075 45.714 319.174 44.3479 313.181C43.2181 308.264 42.3735 303.285 41.8182 298.27C41.0465 291.912 40.649 285.514 40.6278 279.109C40.6278 277.245 40.6278 275.307 40.6278 273.443C40.6509 269.58 40.8993 265.721 41.3718 261.887C41.3718 259.278 41.967 256.668 42.339 254.431C42.7111 252.195 43.6782 246.976 44.4967 243.546C45.3151 240.117 45.5383 238.924 46.2079 236.613C47.1752 233.034 48.2912 229.53 49.556 226.026C50.2391 223.874 51.0338 221.758 51.9369 219.689C53.2761 216.11 54.8386 212.681 56.4011 209.326C52.8298 208.431 48.9608 207.611 45.3895 206.865C43.7184 210.263 42.2282 213.747 40.9254 217.303L38.6933 223.268C37.5028 226.772 36.4612 230.276 35.4196 233.854C34.8244 236.016 34.2292 238.179 33.7827 240.341C32.9643 243.994 32.2203 247.796 31.6251 251.226C31.1787 253.611 30.881 255.997 30.5834 258.681C30.137 262.409 29.8394 266.137 29.6162 269.939C29.393 273.741 29.6162 276.425 29.6162 279.706C29.6162 282.986 29.6162 287.161 29.6162 290.516C29.6162 295.511 30.4346 300.506 31.1787 305.427C34.6519 328.463 42.7514 350.554 54.9874 370.364C57.5915 374.539 60.4188 378.565 63.3205 382.517C77.0012 400.932 94.2181 416.42 113.959 428.072C133.7 439.723 155.566 447.301 178.272 450.362C185.67 451.368 193.128 451.866 200.593 451.853C204.76 451.853 208.703 451.853 212.721 451.405C227.056 450.433 241.208 447.627 254.832 443.055C260.041 441.266 265.1 439.328 270.085 437.165C273.359 435.674 276.483 434.109 279.683 432.543C282.882 430.977 287.718 428.07 291.587 425.609C294.34 423.969 297.019 422.105 299.623 420.316C302.227 418.527 306.393 415.246 309.593 412.861C312.792 410.475 314.206 408.984 316.438 406.896C318.67 404.809 322.241 401.379 324.919 398.546C322.167 395.638 318.595 393.998 315.098 392.507Z" fill="#FFB800"/>
<path id="Vector_3" d="M325.739 397.428C323.061 400.261 320.233 403.094 317.257 405.778C313.463 403.989 309.817 402.274 306.097 400.857C295.242 396.465 284.107 392.804 272.765 389.898L260.563 386.841L253.122 385.126H251.634L239.507 382.293C221.991 379 205.301 372.259 190.401 362.461C176.134 352.044 165.469 337.421 159.896 320.636L158.111 316.163C157.143 313.852 156.251 311.54 155.283 309.155C155.283 308.707 155.283 308.186 154.688 307.738C153.274 304.309 151.786 300.879 150.075 297.226C142.324 280.975 132.303 265.913 120.314 252.493C106.401 236.613 81.3274 226.175 52.4592 219.316C48.8135 218.421 45.0189 217.676 41.4476 216.93C42.7505 213.374 44.2406 209.89 45.9118 206.493C49.6319 207.238 53.352 208.058 56.9233 208.953C86.6843 216.408 113.395 227.815 128.647 245.112C142.263 260.217 153.503 277.312 161.98 295.809C163.691 299.612 165.253 303.265 166.592 306.694L167.932 309.975C167.932 310.571 168.453 311.168 168.676 311.839C170.164 315.566 171.577 319.294 173.066 322.426C177.912 334.878 186.325 345.617 197.246 353.291C207.743 360.36 219.406 365.509 231.695 368.5C236.605 369.917 241.665 371.11 246.575 372.377L253.346 373.943L255.578 374.465L268.747 377.596C284.342 381.27 299.599 386.258 314.356 392.507C318.597 393.998 322.168 395.638 325.739 397.428Z" fill="#FFB800"/>
<path id="Vector_4" d="M310.417 411.742C307.217 414.352 303.869 416.961 300.447 419.198C296.355 417.26 292.262 415.545 288.245 413.979C278.634 410.27 268.822 407.109 258.856 404.511C254.764 403.467 250.671 402.423 246.728 401.528L237.056 399.217C213.396 393.775 193.084 389.078 175.748 376.851C168.988 372.034 163.036 366.17 158.115 359.479C157.179 358.303 156.333 357.056 155.585 355.752C150.686 347.794 146.621 339.349 143.458 330.552C142.193 327.495 141.002 324.364 139.663 321.158C138.324 317.952 137.133 315.268 135.645 312.212C135.429 311.627 135.18 311.054 134.901 310.497C133.562 307.813 132.148 305.054 130.586 302.147C123.432 289.504 114.925 277.679 105.215 266.882C92.7151 252.717 71.2872 242.801 46.2136 236.017C42.7167 235.047 38.7734 234.153 35.4253 233.258C36.4669 229.679 37.5085 225.803 38.699 222.671L49.5617 225.43C76.421 232.885 99.6346 243.77 113.548 259.576C124.201 271.505 133.461 284.612 141.151 298.643C143.086 302.221 144.722 305.576 146.21 308.857C147.996 312.734 149.559 316.312 150.972 319.891C151.865 321.978 152.683 324.066 153.502 326.079C160.272 343.077 165.109 355.304 181.998 367.531C197.474 378.789 216.818 383.262 239.213 388.481L242.413 389.227L255.433 392.284L261.906 393.924L273.736 397.279C282.273 399.864 290.667 402.901 298.884 406.374C302.902 408.089 306.622 410.102 310.417 411.742Z" fill="#FFB800"/>
<path id="Vector_5" d="M292.405 425.012C288.536 427.472 284.519 429.709 280.501 431.945C275.665 429.858 270.977 427.994 266.29 426.428C251.912 421.524 237.253 417.49 222.392 414.35C198.807 408.908 178.495 404.211 161.159 391.611C158.561 389.696 156.076 387.63 153.719 385.423C152.066 383.977 150.501 382.433 149.032 380.801C147.097 378.766 145.307 376.599 143.675 374.314C141.963 372.003 140.475 369.692 139.062 367.381C137.853 365.331 136.76 363.216 135.788 361.044C133.482 356.421 131.547 351.65 129.538 346.729L129.017 345.312C126.562 339.199 124.032 332.787 120.684 325.928C119.196 322.797 117.485 319.442 115.551 316.012C108.599 303.771 100.341 292.322 90.9233 281.866C77.5649 268.332 60.8851 258.56 42.5618 253.535L31.8478 250.33C32.443 246.676 33.187 242.874 34.0055 239.445C37.6512 240.414 41.4457 241.532 44.7194 242.65C65.292 248.047 84.0626 258.829 99.1076 273.889C109.531 285.531 118.615 298.311 126.19 311.986C128.125 315.491 129.836 318.995 131.398 322.275C134.523 328.836 136.978 334.949 138.838 340.541C140.401 344.418 141.889 347.996 143.451 351.575C145.469 356.503 147.961 361.222 150.892 365.666C151.933 367.083 153.049 368.574 154.24 369.99C155.43 371.407 156.249 372.301 157.29 373.494C159.926 376.163 162.734 378.653 165.698 380.95L167.037 381.919C182.587 393.177 201.932 397.65 224.327 402.869C231.767 404.584 239.207 406.373 247.615 408.535C251.484 409.504 255.055 410.623 259.37 411.89C265.844 413.903 272.54 416.14 279.31 418.898C283.774 420.911 288.239 422.7 292.405 425.012Z" fill="#FFB800"/>
<path id="Vector_6" d="M270.904 436.269C265.919 438.431 260.859 440.369 255.651 442.158C249.104 439.773 242.705 437.685 236.455 435.97C226.486 433.063 216.888 430.826 207.811 428.515C184.225 423.072 163.913 418.301 146.577 405.701C138.548 400.113 131.696 392.994 126.414 384.751C124.067 381.165 122.003 377.401 120.239 373.493C118.155 369.095 116.37 364.696 114.435 359.999C114.455 359.801 114.455 359.601 114.435 359.403C113.319 356.495 112.054 353.438 110.715 350.232C108.632 345.163 106.251 339.869 103.275 334.203C95.8724 320.429 86.8555 307.589 76.4157 295.956C66.5337 285.688 54.4477 277.81 41.0745 272.919C37.5776 271.428 33.6343 270.16 30.063 268.818C30.063 265.091 30.5838 261.363 31.0302 257.561C34.6759 258.754 38.4705 260.021 41.8186 261.363C58.0727 266.909 72.7844 276.234 84.7488 288.575C99.0075 304.325 110.639 322.274 119.197 341.733C121.28 346.505 123.066 351.052 124.777 355.302L125.298 356.495C126.34 359.179 127.307 361.639 128.423 363.95C129.741 367.245 131.257 370.457 132.962 373.568L134.97 377.147C136.626 379.742 138.439 382.232 140.402 384.602C144.177 389.081 148.502 393.064 153.273 396.456C168.749 407.64 188.094 412.187 210.563 417.332C225.963 420.623 241.165 424.779 256.098 429.782C260.785 432.466 265.77 434.032 270.904 436.269Z" fill="#FFB800"/>
<path id="Vector_7" d="M125.073 356.721C120.162 354.782 115.326 352.62 110.193 350.458C87.2618 339.675 65.1542 327.216 44.0488 313.181C39.6591 310.273 35.3438 307.365 31.1772 304.458C30.4332 299.537 29.9124 294.542 29.6147 289.547L41.8168 298.27C61.4089 311.753 81.864 323.932 103.05 334.727C108.258 337.337 113.541 339.946 118.972 342.183C121.055 346.954 122.841 351.502 124.552 355.752L125.073 356.721Z" fill="#FFB800"/>
<path id="Vector_8" d="M134.971 377.52C130.061 376.327 125.225 375.06 120.537 373.718C115.329 372.227 110.344 370.661 105.657 368.946H104.913C88.3628 363.248 72.2701 356.294 56.7745 348.145C51.2687 345.238 46.0606 342.33 41.0012 339.348C38.962 333.873 37.1989 328.3 35.7186 322.648C40.3316 325.63 45.0189 328.537 50.0039 331.37C70.5726 343.399 92.3742 353.172 115.032 360.521C119.57 362.013 124.109 363.355 128.796 364.622C130.114 367.917 131.63 371.128 133.335 374.24L134.971 377.52Z" fill="#FFB800"/>
<path id="Vector_9" d="M269.493 377.596L256.323 374.465C248.541 355.613 236.281 338.952 220.61 325.93C205.526 312.944 186.178 306.012 166.296 306.471C164.957 303.041 163.395 299.015 161.683 295.586C173.588 294.698 185.551 296.171 196.888 299.919C208.224 303.667 218.713 309.618 227.753 317.43C246.938 333.244 261.383 354.067 269.493 377.596Z" fill="#FFB800"/>
<path id="Vector_10" d="M247.319 372.377C242.037 371.11 236.977 369.917 232.439 368.5C225.389 357.527 216.737 347.676 206.77 339.275C197.111 330.974 185.603 325.118 173.214 322.202C171.726 318.847 170.313 315.343 168.825 311.615C168.825 310.944 168.304 310.348 168.081 309.751C185.046 312.285 200.942 319.603 213.913 330.85C227.6 342.421 238.941 356.519 247.319 372.377Z" fill="#FFB800"/>
<path id="Vector_11" d="M192.634 289.472L184.673 282.017L417.106 4.74715C418.213 3.37822 419.591 2.25407 421.153 1.44565C422.716 0.637224 424.428 0.162078 426.183 0.0501936C427.94 -0.104651 429.709 0.0996621 431.385 0.65074C433.06 1.20182 434.606 2.08817 435.93 3.25605C437.246 4.42521 438.319 5.84415 439.085 7.43091C439.851 9.01768 440.296 10.7408 440.394 12.5009C440.516 14.3052 440.269 16.1155 439.668 17.8207C439.066 19.5258 438.123 21.0898 436.897 22.4167L192.634 289.472Z" fill="#FFB800"/>
<path id="Vector_12" d="M214.51 299.016L208.037 290.815L488.609 61.9317C489.967 60.8108 491.536 59.9756 493.224 59.476C494.911 58.9764 496.682 58.8227 498.43 59.0241C500.178 59.2169 501.87 59.7587 503.407 60.6176C504.943 61.4766 506.292 62.6352 507.373 64.0251C508.455 65.415 509.248 67.008 509.706 68.71C510.163 70.4121 510.276 72.1887 510.036 73.9351C509.796 75.675 509.212 77.3494 508.318 78.86C507.423 80.3707 506.237 81.6873 504.828 82.7325L214.51 299.016ZM497.239 66.1068L500.885 77.0664L497.239 66.1068Z" fill="#FFB800"/>
</g>
</svg>
