<svg width="95" height="95" viewBox="0 0 95 95" fill="none" xmlns="http://www.w3.org/2000/svg">
<g id="Group 396">
<rect id="Rectangle 40" width="95" height="95" rx="47.5" fill="#FFB800"/>
<g id="Group 28">
<path id="Vector" d="M33.4091 60.0505C32.7663 60.0505 32.1483 60.211 31.6001 60.5122C28.7121 56.8101 27.1269 52.2112 27.1269 47.4998C27.1269 35.8294 36.6212 26.3352 48.2915 26.3352C49.7103 26.3352 51.1284 26.4764 52.5065 26.7549C52.9914 26.8529 53.465 26.5391 53.5631 26.0535C53.6612 25.568 53.3473 25.0951 52.8617 24.9966C51.3669 24.6947 49.8294 24.5416 48.2915 24.5416C42.1593 24.5416 36.3938 26.9297 32.0576 31.2659C27.7214 35.6021 25.3333 41.3675 25.3333 47.4998C25.3333 52.6582 27.0849 57.6922 30.2738 61.7278C29.8632 62.3412 29.6425 63.0622 29.6425 63.8171C29.6425 64.8232 30.0345 65.7691 30.746 66.4802C31.4572 67.1917 32.403 67.5837 33.4091 67.5837C34.4152 67.5837 35.3611 67.1917 36.0726 66.4802C36.784 65.7691 37.1757 64.8228 37.1757 63.8167C37.1757 62.811 36.784 61.8648 36.0726 61.1537C35.3611 60.4422 34.4152 60.0505 33.4091 60.0505ZM34.8041 65.212C34.4317 65.5848 33.936 65.7901 33.4091 65.7901C32.8822 65.7901 32.3869 65.5848 32.0142 65.212C31.6414 64.8393 31.4361 64.344 31.4361 63.8171C31.4361 63.2899 31.6414 62.7945 32.0142 62.4218C32.3865 62.0491 32.8822 61.8441 33.4091 61.8441C33.936 61.8441 34.4313 62.0494 34.8041 62.4218C35.1768 62.7945 35.3821 63.2899 35.3821 63.8171C35.3821 64.344 35.1768 64.8393 34.8041 65.212Z" fill="#172B4C"/>
<path id="Vector_2" d="M66.3087 33.271C67.2837 31.8084 67.1271 29.8088 65.8376 28.5193C65.1261 27.8082 64.1802 27.4162 63.1741 27.4162C62.168 27.4162 61.2222 27.8082 60.5107 28.5193C59.7992 29.2308 59.4075 30.1767 59.4075 31.1828C59.4075 32.1889 59.7992 33.1347 60.5107 33.8462C61.2222 34.5577 62.168 34.9494 63.1741 34.9494C63.8169 34.9494 64.4349 34.7889 64.9831 34.4877C67.8711 38.1901 69.4563 42.7887 69.4563 47.5001C69.4563 59.1705 59.9621 68.6647 48.2917 68.6647C46.8869 68.6647 45.4822 68.5263 44.117 68.2531C43.6315 68.156 43.1589 68.471 43.0615 68.9565C42.9645 69.4424 43.2794 69.9146 43.7649 70.012C45.2457 70.308 46.7689 70.4583 48.2917 70.4583C54.4239 70.4583 60.1894 68.0702 64.5256 63.734C68.8618 59.3978 71.2499 53.6323 71.2499 47.5001C71.2499 42.3414 69.498 37.307 66.3087 33.271ZM61.7792 32.5781C61.4064 32.2054 61.2011 31.71 61.2011 31.1828C61.2011 30.6559 61.4064 30.1606 61.7792 29.7878C62.1515 29.4151 62.6472 29.2098 63.1741 29.2098C63.701 29.2098 64.1967 29.4151 64.5694 29.7878C65.3384 30.5571 65.3384 31.8088 64.5694 32.5781C64.1967 32.9505 63.701 33.1558 63.1741 33.1558C62.6469 33.1558 62.1515 32.9505 61.7792 32.5781Z" fill="#172B4C"/>
<path id="Vector_3" d="M44.5909 62.9249C44.5909 63.4202 44.9927 63.8217 45.4877 63.8217H51.0952C51.5906 63.8217 51.992 63.4202 51.992 62.9249V61.1863C53.1712 60.8689 54.2985 60.4016 55.3579 59.7913L56.5854 61.0188C56.7535 61.187 56.9816 61.2816 57.2198 61.2816C57.4573 61.2816 57.6857 61.187 57.8538 61.0185L61.8173 57.0522C62.1673 56.7019 62.1673 56.134 61.8173 55.7841L60.5912 54.558C61.2015 53.4986 61.6688 52.3713 61.9862 51.1922H63.7181C64.2135 51.1922 64.6149 50.7907 64.6149 50.2953V44.6879C64.6149 44.1925 64.2135 43.7911 63.7181 43.7911H61.9858C61.6684 42.6122 61.2015 41.4849 60.5912 40.4256L61.8107 39.2061C61.9788 39.038 62.0734 38.8096 62.0734 38.5717C62.073 38.3339 61.9785 38.1055 61.8103 37.9373L57.8437 33.9738C57.4937 33.6239 56.9259 33.6239 56.5756 33.9742L55.3579 35.1922C54.2985 34.582 53.1712 34.1147 51.992 33.7973V32.0748C51.992 31.5794 51.5906 31.178 51.0952 31.178H45.4877C44.9927 31.178 44.5909 31.5794 44.5909 32.0748V33.7976C43.4121 34.1147 42.2848 34.582 41.2255 35.1922L40.0074 33.9742C39.6575 33.6242 39.0896 33.6239 38.7393 33.9738L34.773 37.9376C34.6045 38.1058 34.5099 38.3339 34.5099 38.5717C34.5099 38.8096 34.6045 39.038 34.7727 39.2061L35.9921 40.4256C35.3819 41.4849 34.9145 42.6119 34.5972 43.7911H32.8684C32.373 43.7911 31.9716 44.1925 31.9716 44.6875L31.9684 50.295C31.968 50.5329 32.0626 50.7613 32.2308 50.9294C32.3989 51.0976 32.627 51.1922 32.8652 51.1922H34.5972C34.9145 52.3713 35.3819 53.4986 35.9921 54.558L34.766 55.7841C34.416 56.134 34.4157 56.7019 34.766 57.0522L38.7295 61.0185C38.8976 61.1866 39.1257 61.2816 39.3635 61.2816H39.3639C39.6018 61.2816 39.8298 61.187 39.998 61.0188L41.2251 59.7913C42.2848 60.4016 43.4121 60.8689 44.5909 61.1863V62.9249ZM41.5768 57.9052C41.222 57.6758 40.755 57.7255 40.4558 58.0243L39.3639 59.1163L36.6682 56.4185L37.7591 55.3273C38.0579 55.0285 38.1077 54.5615 37.8782 54.2066C37.0651 52.9483 36.4934 51.5691 36.1795 50.1069C36.0906 49.6939 35.7255 49.3985 35.3027 49.3985H33.7624L33.7645 45.5847H35.3027C35.7255 45.5847 36.0906 45.2897 36.1795 44.8763C36.4934 43.4145 37.0651 42.0353 37.8782 40.7769C38.1077 40.4221 38.0579 39.9551 37.7591 39.6563L36.6752 38.5721L39.373 35.8764L40.4558 36.9596C40.755 37.2584 41.2216 37.3078 41.5768 37.0787C42.8348 36.2656 44.214 35.6939 45.6762 35.38C46.0892 35.291 46.3845 34.9256 46.3845 34.5032V32.9716H50.1984V34.5028C50.1984 34.9256 50.4934 35.291 50.9068 35.3797C52.3686 35.6939 53.7482 36.2652 55.0061 37.0783C55.361 37.3078 55.828 37.2584 56.1268 36.9592L57.21 35.8764L59.9077 38.5721L58.8239 39.6559C58.5247 39.9551 58.4753 40.4221 58.7048 40.7769C59.5178 42.0353 60.0892 43.4145 60.4034 44.8763C60.4921 45.2897 60.8574 45.5847 61.2803 45.5847H62.8213V49.3985H61.2803C60.8574 49.3985 60.4924 49.6939 60.4034 50.1069C60.0896 51.5687 59.5178 52.9483 58.7048 54.2063C58.4753 54.5615 58.5251 55.0285 58.8239 55.3273L59.9148 56.4181L57.2191 59.1159L56.1271 58.0243C55.828 57.7252 55.361 57.6758 55.0061 57.9052C53.7478 58.7183 52.3686 59.2897 50.9068 59.6039C50.4934 59.6929 50.1984 60.0579 50.1984 60.4807V62.0281H46.3845V60.4807C46.3845 60.0583 46.0892 59.6929 45.6762 59.6039C44.2143 59.29 42.8352 58.7183 41.5768 57.9052Z" fill="white"/>
<path id="Vector_4" d="M55.7018 47.5C55.7018 43.414 52.3777 40.0898 48.2916 40.0898C44.2055 40.0898 40.8814 43.414 40.8814 47.5C40.8814 51.5861 44.2055 54.9103 48.2916 54.9103C52.3777 54.9103 55.7018 51.5861 55.7018 47.5ZM42.675 47.5C42.675 44.4029 45.1945 41.8835 48.2916 41.8835C51.3887 41.8835 53.9082 44.4033 53.9082 47.5C53.9082 50.5968 51.3887 53.1166 48.2916 53.1166C45.1945 53.1166 42.675 50.5972 42.675 47.5Z" fill="#172B4C"/>
<path id="Vector_5" d="M56.5492 27.9335C56.7854 27.9335 57.0166 27.8375 57.1833 27.6707C57.3501 27.5029 57.446 27.2717 57.446 27.0356C57.446 26.8009 57.3504 26.5693 57.1833 26.4015C57.0166 26.2348 56.7854 26.1388 56.5492 26.1388C56.3124 26.1388 56.0823 26.2348 55.9155 26.4015C55.7484 26.5693 55.6524 26.7998 55.6524 27.0356C55.6524 27.2724 55.7484 27.5029 55.9155 27.6707C56.0823 27.8375 56.3124 27.9335 56.5492 27.9335Z" fill="#172B4C"/>
<path id="Vector_6" d="M40.0732 67.0825C39.8375 67.0825 39.6059 67.1784 39.4392 67.3452C39.2724 67.5119 39.1764 67.7435 39.1764 67.9793C39.1764 68.2161 39.2724 68.4466 39.4392 68.6133C39.6059 68.7801 39.8375 68.8761 40.0732 68.8761C40.309 68.8761 40.5406 68.7801 40.7073 68.6133C40.8741 68.4466 40.97 68.215 40.97 67.9793C40.97 67.7435 40.8741 67.5119 40.7073 67.3452C40.5406 67.1784 40.309 67.0825 40.0732 67.0825Z" fill="#172B4C"/>
</g>
</g>
</svg>
