<svg width="95" height="95" viewBox="0 0 95 95" fill="none" xmlns="http://www.w3.org/2000/svg">
<g id="Group 395">
<rect id="Rectangle 41" width="95" height="95" rx="47.5" fill="#FFB800"/>
<g id="Group 27">
<path id="Vector" d="M44.7927 58.3911C45.0258 58.3911 45.2548 58.2955 45.4196 58.1284C45.5845 57.9616 45.6794 57.7304 45.6794 57.4943C45.6794 57.2585 45.5845 57.0273 45.4196 56.8605C45.2548 56.6934 45.0258 56.5974 44.7927 56.5974C44.5596 56.5974 44.3307 56.6934 44.1658 56.8605C44.001 57.0273 43.9061 57.2585 43.9061 57.4943C43.9061 57.7304 44.001 57.9616 44.1658 58.1284C44.3307 58.2951 44.5596 58.3911 44.7927 58.3911Z" fill="white"/>
<path id="Vector_2" d="M44.0166 51.3453C44.5063 51.3453 44.9032 50.9438 44.9032 50.4484C44.9032 49.9534 44.5063 49.5516 44.0166 49.5516H37.2266C36.7368 49.5516 36.3399 49.9534 36.3399 50.4484C36.3399 50.9438 36.7368 51.3453 37.2266 51.3453H44.0166Z" fill="white"/>
<path id="Vector_3" d="M33.2248 51.3453C33.7142 51.3453 34.1114 50.9438 34.1114 50.4484C34.1114 49.9534 33.7142 49.5516 33.2248 49.5516H30.1626C29.6729 49.5516 29.276 49.9534 29.276 50.4484C29.276 50.9438 29.6729 51.3453 30.1626 51.3453H33.2248Z" fill="white"/>
<path id="Vector_4" d="M60.4869 66.2668C60.2538 66.2668 60.0248 66.3628 59.8599 66.5295C59.6951 66.6963 59.6002 66.9279 59.6002 67.1636C59.6002 67.4005 59.6951 67.6317 59.8599 67.7978C60.0248 67.9652 60.2538 68.0612 60.4869 68.0612C60.72 68.0612 60.9489 67.9652 61.1138 67.7978C61.2786 67.631 61.3735 67.4001 61.3735 67.1636C61.3735 66.9279 61.2786 66.6963 61.1138 66.5295C60.9489 66.3628 60.72 66.2668 60.4869 66.2668Z" fill="white"/>
<path id="Vector_5" d="M67.2069 40.7955H65.0976V34.4393C65.0976 31.9943 63.2037 29.989 60.8218 29.8432L63.0361 27.6039V28.5179C63.0361 29.0129 63.433 29.4148 63.9227 29.4148C64.4125 29.4148 64.8094 29.0129 64.8094 28.5179V25.4384C64.8094 24.9431 64.4125 24.5416 63.9227 24.5416H60.8786C60.3889 24.5416 59.9919 24.9431 59.9919 25.4384C59.9919 25.9338 60.3889 26.3353 60.8786 26.3353H61.7819L58.3232 29.8341H48.7828C48.293 29.8341 47.8961 30.2356 47.8961 30.731C47.8961 31.226 48.293 31.6278 48.7828 31.6278H56.5498L46.6915 41.5992C46.2565 41.3609 45.7671 41.2341 45.2586 41.2341C44.8281 41.2341 44.4118 41.3255 44.0304 41.4976L40.8921 38.3232C41.3811 37.2042 41.174 35.8466 40.2686 34.9308C39.0931 33.7418 37.1805 33.7418 36.0053 34.9308C35.0494 35.8978 34.871 37.358 35.4699 38.5092L32.9148 41.0936C31.776 40.4847 30.3299 40.6641 29.373 41.6324C28.8035 42.2084 28.4898 42.9742 28.4898 43.7884C28.4898 44.603 28.8035 45.3688 29.373 45.9447C29.9424 46.5207 30.6995 46.8378 31.5044 46.8378C32.3097 46.8378 33.0669 46.5207 33.6363 45.9447C34.2057 45.3688 34.5191 44.603 34.5191 43.7884C34.5191 43.2825 34.3979 42.7956 34.17 42.3611L36.722 39.7795C37.1629 40.0163 37.6498 40.1347 38.1368 40.1347C38.6886 40.1347 39.2396 39.9824 39.7242 39.679L42.6928 42.6817C42.4008 43.1582 42.2439 43.7085 42.2439 44.2834C42.2439 45.098 42.5574 45.8638 43.1268 46.4398C43.7146 47.034 44.4866 47.3314 45.2586 47.3314C46.0306 47.3314 46.8027 47.034 47.3904 46.4398C47.9598 45.8638 48.2733 45.098 48.2733 44.2834C48.2733 43.786 48.1559 43.3071 47.9353 42.8782L59.0578 31.6278H60.5444C62.0773 31.6278 63.3242 32.8891 63.3242 34.4393V40.7955H53.7669C52.29 40.7955 51.0881 42.0112 51.0881 43.505V53.8564H26.2613V34.4393C26.2613 32.8891 27.5082 31.6278 29.0412 31.6278H40.8055C41.2949 31.6278 41.6922 31.226 41.6922 30.731C41.6922 30.2356 41.2949 29.8341 40.8055 29.8341H29.0412C26.5304 29.8341 24.4879 31.9001 24.4879 34.4393V56.5271C24.4879 59.0663 26.5304 61.1326 29.0412 61.1326H40.7141V65.0946C38.4839 65.2774 36.724 67.1703 36.724 69.4724V69.5614C36.724 70.0564 37.121 70.4582 37.6107 70.4582H51.9748C52.2221 70.4582 52.4455 70.3556 52.6062 70.1906C52.9578 70.3619 53.3512 70.4582 53.7669 70.4582H67.2069C68.6837 70.4582 69.8856 69.2426 69.8856 67.7487V43.505C69.8856 42.0112 68.6837 40.7955 67.2069 40.7955ZM32.3825 44.6765C32.3821 44.6765 32.3821 44.6765 32.3825 44.6765C32.1476 44.9137 31.8362 45.044 31.5044 45.044C31.173 45.044 30.8613 44.9137 30.6268 44.6765C30.3923 44.439 30.2631 44.124 30.2631 43.7884C30.2631 43.4531 30.3923 43.1378 30.6268 42.9007C30.8689 42.6561 31.1868 42.5335 31.5048 42.5335C31.8224 42.5335 32.1403 42.6558 32.3821 42.9007C32.6169 43.1378 32.7458 43.4531 32.7458 43.7884C32.7458 44.124 32.6169 44.439 32.3825 44.6765ZM37.2938 38.0064C37.2824 37.9935 37.2716 37.9802 37.2592 37.9676C37.2481 37.9563 37.2363 37.9469 37.2249 37.9364C36.777 37.4442 36.7874 36.6762 37.2592 36.1991C37.5013 35.9542 37.8192 35.8319 38.1368 35.8319C38.4548 35.8319 38.7727 35.9542 39.0148 36.1991C39.4575 36.6471 39.4938 37.3517 39.126 37.8432C39.1007 37.8702 39.0779 37.8985 39.0564 37.928C39.0425 37.9434 39.0297 37.9595 39.0148 37.9746C38.5421 38.4531 37.7801 38.4629 37.2938 38.0064ZM46.1363 45.1712C45.6524 45.6606 44.8648 45.661 44.3806 45.1712C44.1461 44.934 44.0173 44.6187 44.0173 44.2834C44.0173 43.9478 44.1461 43.6325 44.3806 43.3953C44.6151 43.1582 44.9268 43.0278 45.2586 43.0278C45.5901 43.0278 45.9018 43.1582 46.1363 43.3957C46.3708 43.6329 46.5 43.9478 46.5 44.2834C46.5 44.6187 46.3708 44.934 46.1363 45.1712ZM48.8715 61.1326H51.0881V65.9336C50.4571 65.4635 49.6965 65.1622 48.8715 65.0946V61.1326ZM52.8615 46.2145H68.1123V63.8214H52.8615V46.2145ZM53.7669 42.5892H67.2069C67.706 42.5892 68.1123 43.0002 68.1123 43.505V44.4208H52.8615V43.505C52.8615 43.0002 53.2678 42.5892 53.7669 42.5892ZM26.2613 56.5271V55.6502H51.0881V59.3389H29.0412C27.5082 59.3389 26.2613 58.0776 26.2613 56.5271ZM47.0981 61.1326V65.0788H42.4874V61.1326H47.0981ZM38.6245 68.6645C38.9612 67.6251 39.9292 66.8725 41.068 66.8725H48.5178C49.6563 66.8725 50.6244 67.6251 50.961 68.6645H38.6245ZM67.2069 68.6645H53.7669C53.2678 68.6645 52.8615 68.2536 52.8615 67.7487V65.6152H68.1123V67.7487C68.1123 68.2536 67.706 68.6645 67.2069 68.6645Z" fill="#172B4C"/>
<path id="Vector_6" d="M55.5215 55.915H59.5496C60.039 55.915 60.4363 55.5132 60.4363 55.0181C60.4363 54.5228 60.039 54.1213 59.5496 54.1213H55.5215C55.0317 54.1213 54.6348 54.5228 54.6348 55.0181C54.6348 55.5132 55.0317 55.915 55.5215 55.915Z" fill="white"/>
<path id="Vector_7" d="M65.4522 54.1213H63.2573C62.7676 54.1213 62.3707 54.5228 62.3707 55.0181C62.3707 55.5132 62.7676 55.915 63.2573 55.915H65.4522C65.9419 55.915 66.3389 55.5132 66.3389 55.0181C66.3389 54.5228 65.9419 54.1213 65.4522 54.1213Z" fill="white"/>
<path id="Vector_8" d="M55.5215 51.6101H65.4522C65.942 51.6101 66.3389 51.2083 66.3389 50.7133C66.3389 50.2179 65.942 49.8164 65.4522 49.8164H55.5215C55.0317 49.8164 54.6348 50.2179 54.6348 50.7133C54.6348 51.2083 55.0317 51.6101 55.5215 51.6101Z" fill="white"/>
<path id="Vector_9" d="M65.4522 58.4259H55.5215C55.0317 58.4259 54.6348 58.8277 54.6348 59.3228C54.6348 59.8181 55.0317 60.2196 55.5215 60.2196H65.4522C65.942 60.2196 66.3389 59.8181 66.3389 59.3228C66.3389 58.8277 65.942 58.4259 65.4522 58.4259Z" fill="white"/>
<path id="Vector_10" d="M44.7927 31.6283C45.0258 31.6283 45.2548 31.5323 45.4196 31.3652C45.5845 31.1977 45.6794 30.9672 45.6794 30.7314C45.6794 30.4953 45.5845 30.264 45.4196 30.0973C45.2548 29.9305 45.0258 29.8345 44.7927 29.8345C44.5586 29.8345 44.3307 29.9302 44.1658 30.0973C44.001 30.263 43.9061 30.4946 43.9061 30.7314C43.9061 30.9672 44.001 31.1977 44.1658 31.3652C44.3307 31.5323 44.5596 31.6283 44.7927 31.6283Z" fill="#172B4C"/>
</g>
</g>
</svg>
