<svg width="95" height="95" viewBox="0 0 95 95" fill="none" xmlns="http://www.w3.org/2000/svg">
<g id="Group 397">
<rect id="Rectangle 39" width="95" height="95" rx="47.5" fill="#FFB800"/>
<g id="Group 29">
<path id="Vector" d="M67.927 30.5471L61.6573 28.1976C61.1664 28.0137 60.6215 28.2673 60.4393 28.7634C60.2575 29.26 60.5082 29.8116 60.9991 29.9955L66.6501 32.1131V43.6051C66.6501 55.7957 58.9688 66.3975 47.5053 70.0786C36.0418 66.3975 28.3604 55.7957 28.3604 43.6051V32.1131L47.5053 24.9393L52.9986 26.9978C53.4895 27.182 54.0349 26.9285 54.2167 26.432C54.3984 25.9354 54.1482 25.3838 53.6572 25.1999L47.8344 23.0179C47.6223 22.9385 47.3883 22.9385 47.1762 23.0179L27.0835 30.5471C26.7115 30.6864 26.4649 31.0451 26.4649 31.4462V43.6051C26.4649 50.0086 28.4548 56.1152 32.2196 61.2635C35.9844 66.4121 41.1741 70.1247 47.2276 71.9993C47.3183 72.0274 47.4116 72.0416 47.5053 72.0416C47.599 72.0416 47.6923 72.0274 47.783 71.9993C53.8364 70.1247 59.0262 66.4121 62.791 61.2635C66.5557 56.1152 68.5457 50.0086 68.5457 43.6051V31.4462C68.5457 31.0451 68.2987 30.6864 67.927 30.5471Z" fill="#172B4C"/>
<path id="Vector_2" d="M47.1617 27.8373L31.6184 33.9522C31.2541 34.0952 31.0142 34.4502 31.0142 34.8457V43.605C31.0142 48.7964 32.5476 53.7661 35.4487 57.9763C38.3397 62.1723 42.3951 65.3366 47.1761 67.127C47.2824 67.1667 47.3938 67.1865 47.5053 67.1865C47.6167 67.1865 47.7281 67.1667 47.8344 67.127C52.6154 65.3366 56.6708 62.1723 59.5619 57.9763C62.4629 53.7661 63.9964 48.7964 63.9964 43.605V34.8457C63.9964 34.4502 63.7565 34.0956 63.3922 33.9522L47.8488 27.8377C47.6278 27.7505 47.3827 27.7505 47.1617 27.8373ZM62.1009 43.605C62.1009 53.2879 56.3839 61.7267 47.5053 65.2029C38.6263 61.7267 32.9097 53.2879 32.9097 43.605V35.5014L47.5053 29.7595L62.1009 35.5014V43.605Z" fill="#172B4C"/>
<path id="Vector_3" d="M42.0082 39.2424V41.1994H41.9016C40.2882 41.1994 38.9754 42.5273 38.9754 44.1593V53.5313C38.9754 55.1636 40.2882 56.4912 41.9016 56.4912H53.1089C54.7223 56.4912 56.0351 55.1636 56.0351 53.5313V44.1593C56.0351 42.5273 54.7223 41.1994 53.1089 41.1994H53.0023V39.2424C53.0023 36.1766 50.5363 33.6822 47.5053 33.6822C44.4743 33.6822 42.0082 36.1762 42.0082 39.2424ZM54.1396 44.1593V53.5313C54.1396 54.1061 53.6772 54.5738 53.1089 54.5738H41.9016C41.3333 54.5738 40.8709 54.1061 40.8709 53.5313V44.1593C40.8709 43.5845 41.3333 43.1167 41.9016 43.1167H53.1089C53.6772 43.1167 54.1396 43.5845 54.1396 44.1593ZM51.1068 39.2424V41.1994H43.9038V39.2424C43.9038 37.2337 45.5194 35.5995 47.5053 35.5995C49.4911 35.5995 51.1068 37.2337 51.1068 39.2424Z" fill="white"/>
<path id="Vector_4" d="M47.5052 45.0052C45.9373 45.0052 44.6619 46.2957 44.6619 47.8812C44.6619 49.1312 45.4542 50.1966 46.5574 50.5924V51.3433C46.5574 51.8728 46.9817 52.3019 47.5052 52.3019C48.0283 52.3019 48.453 51.8728 48.453 51.3433V50.5924C49.5558 50.1966 50.3485 49.1312 50.3485 47.8812C50.3485 46.2957 49.0731 45.0052 47.5052 45.0052ZM47.5052 48.8399C46.9824 48.8399 46.5574 48.41 46.5574 47.8812C46.5574 47.3528 46.9824 46.9226 47.5052 46.9226C48.0276 46.9226 48.453 47.3528 48.453 47.8812C48.453 48.41 48.0276 48.8399 47.5052 48.8399Z" fill="white"/>
<path id="Vector_5" d="M57.3276 28.5568C57.5772 28.5568 57.8215 28.4542 57.9978 28.2759C58.174 28.0966 58.2754 27.8505 58.2754 27.5981C58.2754 27.3461 58.174 27.0986 57.9978 26.9196C57.8215 26.7413 57.5772 26.6395 57.3276 26.6395C57.0785 26.6395 56.8341 26.7413 56.6575 26.9196C56.4817 27.0986 56.3799 27.345 56.3799 27.5981C56.3799 27.8505 56.4813 28.0977 56.6575 28.2759C56.8341 28.4542 57.0785 28.5568 57.3276 28.5568Z" fill="#172B4C"/>
</g>
</g>
</svg>
