<svg width="95" height="95" viewBox="0 0 95 95" fill="none" xmlns="http://www.w3.org/2000/svg">
<g id="Group 393">
<rect id="Rectangle 37" width="95" height="95" rx="47.5" fill="#FFB800"/>
<g id="Group 31">
<path id="Vector" d="M48.2688 46.4047C47.9341 46.0661 47.3922 46.0661 47.0575 46.4047C46.7237 46.7424 46.7237 47.2905 47.0575 47.629C47.3922 47.9667 47.9341 47.9667 48.2688 47.629C48.6027 47.2905 48.6027 46.7424 48.2688 46.4047Z" fill="white"/>
<path id="Vector_2" d="M59.1639 35.3837C57.4912 33.6919 54.7834 33.6918 53.1106 35.3837C51.4422 37.0712 51.4421 39.8178 53.1108 41.5067C54.7798 43.1938 57.4951 43.1945 59.1639 41.5066C60.8365 39.8148 60.8368 37.0758 59.1639 35.3837ZM57.9533 40.2819C56.9523 41.2945 55.3229 41.2945 54.3214 40.2821C53.3203 39.2689 53.3202 37.6207 54.3213 36.6083C55.3248 35.5932 56.9496 35.593 57.9533 36.6083C58.9568 37.6233 58.957 39.2668 57.9533 40.2819Z" fill="white"/>
<g id="Group">
<path id="Vector_3" d="M68.849 25.5869C68.6809 25.417 68.4515 25.3248 68.213 25.3339C68.0194 25.3409 63.4109 25.5283 57.9327 27.4869C53.5429 29.0546 49.8839 31.2993 47.0573 34.1584C46.4239 34.7991 45.8076 35.4785 45.2178 36.1842C42.423 34.5202 40.1834 35.042 38.7676 35.8084C35.5077 37.573 33.4899 42.3645 33.4899 45.7916C33.4902 46.1418 33.6988 46.4576 34.0186 46.5916C34.1245 46.636 34.2358 46.6575 34.3461 46.6575C34.5689 46.6575 34.7878 46.5695 34.9515 46.4039C36.6707 44.665 38.7912 44.7737 39.484 44.8658L39.7837 45.1691C39.1938 46.5891 38.7185 48.0012 38.3699 49.3746C38.2441 49.8716 38.2865 50.3975 38.4736 50.8786C37.6494 51.2628 36.8542 51.8269 36.1618 52.5273C33.9583 54.7562 33.5108 60.1883 33.4928 60.4184C33.4732 60.671 33.5637 60.9197 33.7408 61.0988C33.902 61.2618 34.1201 61.3525 34.3461 61.3525C34.3685 61.3525 34.391 61.3516 34.4135 61.3498C34.6411 61.3317 40.0115 60.8791 42.2151 58.6502C42.9072 57.9501 43.4648 57.1459 43.8446 56.3124C44.3482 56.5127 44.8664 56.5374 45.3324 56.4166C46.6896 56.0641 48.0855 55.5835 49.4896 54.9866L49.7894 55.2899C49.8804 55.9906 49.9879 58.1355 48.2688 59.8743C48.024 60.1219 47.9507 60.4944 48.0833 60.8179C48.2157 61.1414 48.5278 61.3524 48.8741 61.3524C52.2623 61.3524 56.9992 59.3114 58.7438 56.014C59.5015 54.5821 60.0174 52.3168 58.3722 49.4898C59.0697 48.8935 59.7414 48.2701 60.375 47.6291C63.2017 44.77 65.4207 41.0689 66.9707 36.629C68.9071 31.0876 69.0922 26.426 69.0992 26.2303C69.1077 25.99 69.0171 25.757 68.849 25.5869ZM35.4039 43.9292C35.9356 41.3261 37.4802 38.4696 39.5758 37.3352C40.9762 36.5772 42.5069 36.6515 44.1344 37.5526C42.7479 39.3971 41.5425 41.3843 40.5377 43.4828C40.525 43.4748 40.3709 43.2789 40.0846 43.2136C39.9669 43.1866 37.7019 42.6939 35.4039 43.9292ZM41.0045 57.4256C39.8274 58.6162 37.0662 59.2441 35.321 59.5005C35.5746 57.7351 36.1955 54.9423 37.3724 53.7518C38.0316 53.0851 38.7959 52.5796 39.5641 52.2949L42.4448 55.2087C42.1634 55.9858 41.6637 56.7589 41.0045 57.4256ZM44.9072 54.739C44.6594 54.8032 44.3725 54.709 44.1592 54.4935C43.0517 53.3733 42.6184 52.9351 42.4825 52.7977C42.2332 52.5455 41.6219 51.9272 40.2717 50.5614C40.0582 50.345 39.9651 50.0548 40.0283 49.8047C40.3025 48.7246 40.6611 47.6164 41.0972 46.4976L48.1762 53.658C47.07 54.0992 45.9746 54.4618 44.9072 54.739ZM57.2346 55.1969C56.113 57.3165 53.289 58.8789 50.7156 59.4167C51.5361 57.8549 51.717 55.8667 51.4172 54.6612C51.3476 54.3811 51.167 54.2403 51.1569 54.2238C53.2313 53.2075 55.1959 51.9883 57.0196 50.5858C57.9105 52.2322 57.9838 53.7806 57.2346 55.1969ZM59.1646 46.4046C58.3932 47.1848 57.5626 47.9385 56.6958 48.6448C54.612 50.342 52.3185 51.7795 49.8715 52.9239L41.823 44.783C42.9544 42.3078 44.3756 39.9879 46.0532 37.8804C46.7521 37.003 47.4972 36.1628 48.2683 35.3829C50.8043 32.8177 54.0773 30.7761 57.999 29.3065L65.172 36.5619C63.7193 40.5286 61.7009 43.8393 59.1646 46.4046ZM65.7879 34.7357L59.8045 28.6835C63.0644 27.6593 65.9004 27.2758 67.3159 27.138C67.1796 28.5701 66.8003 31.4387 65.7879 34.7357Z" fill="#172B4C"/>
</g>
<path id="Vector_4" d="M45.847 61.0987C45.5125 60.7606 44.9705 60.7608 44.6363 61.0989L42.2154 63.5485C41.8812 63.8867 41.8813 64.435 42.2156 64.773C42.55 65.1111 43.0921 65.1111 43.4263 64.7728L45.8471 62.3233C46.1813 61.985 46.1813 61.4368 45.847 61.0987Z" fill="white"/>
<path id="Vector_5" d="M33.741 48.8535C33.4068 48.5153 32.8648 48.5153 32.5304 48.8534L30.1086 51.3021C29.7743 51.6401 29.7742 52.1884 30.1084 52.5266C30.4425 52.8647 30.9844 52.865 31.319 52.5268L33.7407 50.0781C34.0751 49.74 34.0752 49.1918 33.741 48.8535Z" fill="white"/>
<path id="Vector_6" d="M39.7941 62.3239C39.46 61.9858 38.9179 61.9858 38.5835 62.3238L32.7847 68.1885C32.4503 68.5266 32.4503 69.0749 32.7846 69.413C33.1187 69.7511 33.6608 69.7513 33.9952 69.4131L39.794 63.5485C40.1284 63.2103 40.1284 62.662 39.7941 62.3239Z" fill="white"/>
<path id="Vector_7" d="M32.9457 62.3239C32.6115 61.9858 32.0693 61.9858 31.7351 62.3238L25.9362 68.1885C25.6018 68.5266 25.6018 69.0749 25.9361 69.413C26.2702 69.7511 26.8124 69.7513 27.1467 69.4131L32.9456 63.5485C33.28 63.2103 33.28 62.662 32.9457 62.3239Z" fill="white"/>
<path id="Vector_8" d="M32.5297 54.9759C32.1955 54.6379 31.6534 54.6379 31.3191 54.976L25.5211 60.8415C25.1868 61.1797 25.1868 61.7279 25.5212 62.0661C25.8555 62.4043 26.3975 62.4043 26.7318 62.066L32.5298 56.2006C32.8641 55.8623 32.8641 55.3141 32.5297 54.9759Z" fill="white"/>
<path id="Vector_9" d="M51.9003 42.7306C51.5659 42.3925 51.0241 42.3925 50.6896 42.7306L49.4792 43.9549C49.1449 44.2931 49.1449 44.8413 49.4792 45.1796C49.8135 45.5177 50.3555 45.5177 50.6899 45.1796L51.9003 43.9552C52.2346 43.6171 52.2346 43.0688 51.9003 42.7306Z" fill="white"/>
</g>
</g>
</svg>
