<svg width="95" height="95" viewBox="0 0 95 95" fill="none" xmlns="http://www.w3.org/2000/svg">
<g id="Group 392">
<rect id="Rectangle 36" width="95" height="95" rx="47.5" fill="#FFB800"/>
<g id="Group 30">
<path id="Vector" d="M59.9308 48.7704L68.6414 40.0598L69.536 40.9544C69.7836 41.202 70.156 41.2761 70.4797 41.1421C70.8031 41.0079 71.0141 40.6923 71.0141 40.3422V34.5983C71.0141 34.12 70.6265 33.7324 70.1482 33.7324H64.4046C64.0542 33.7324 63.7387 33.9435 63.6047 34.2668C63.4704 34.5905 63.5445 34.9629 63.7921 35.2105L64.7229 36.141L59.9308 40.9331V34.5983C59.9308 32.9751 58.61 31.6543 56.9868 31.6543H49.8145V31.5027C49.8145 30.0108 48.6005 28.7969 47.1086 28.7969H45.3406V28.234C45.3406 26.6345 44.0394 25.3333 42.4399 25.3333C40.8404 25.3333 39.5392 26.6345 39.5392 28.234V28.7969H37.7712C36.2793 28.7969 35.0653 30.0108 35.0653 31.5027V31.6543H29.6248C28.0016 31.6543 26.6808 32.9751 26.6808 34.5983V43.6035C26.6808 44.0818 27.0684 44.4694 27.5467 44.4694C28.0249 44.4694 28.4126 44.0818 28.4126 43.6035V34.5983C28.4126 33.9299 28.9564 33.386 29.6248 33.386H35.0653V35.3776C35.0653 35.8559 35.453 36.2435 35.9312 36.2435H48.9482C49.4265 36.2435 49.8141 35.8559 49.8141 35.3776V33.386H56.9868C57.6551 33.386 58.199 33.9299 58.199 34.5983V42.6649L55.9416 44.9223L51.8781 40.859C51.5402 40.5208 50.9919 40.5208 50.6536 40.859L42.6009 48.9114C42.4385 49.0741 42.3472 49.2943 42.3472 49.5236C42.3472 49.7533 42.4385 49.9735 42.6009 50.1362L45.295 52.8302C45.4641 52.999 45.6856 53.0836 45.9072 53.0836C46.1287 53.0836 46.3503 52.999 46.5194 52.8302L51.2658 48.0838L55.3294 52.1474C55.6673 52.4852 56.2159 52.4852 56.5538 52.1474L58.199 50.5022V57.1979H53.5232C53.045 57.1979 52.6574 57.5855 52.6574 58.0638V62.3932H47.9816C47.5033 62.3932 47.1157 62.7808 47.1157 63.2591V67.9349H29.6248C28.9564 67.9349 28.4126 67.391 28.4126 66.7226V51.3965C28.4126 50.9182 28.0249 50.5306 27.5467 50.5306C27.0684 50.5306 26.6808 50.9182 26.6808 51.3965V66.7226C26.6808 68.3458 28.0016 69.6666 29.6248 69.6666H70.1482C70.6265 69.6666 71.0141 69.279 71.0141 68.8008V50.444C71.0141 49.9657 70.6265 49.5781 70.1482 49.5781H64.6066C64.1283 49.5781 63.7407 49.9657 63.7407 50.444V54.0807H59.9308V48.7704ZM41.271 28.234C41.271 27.5894 41.7952 27.0651 42.4399 27.0651C43.0846 27.0651 43.6088 27.5894 43.6088 28.234V28.7969H41.271V28.234ZM48.0827 34.5117H36.7971V31.5027C36.7971 30.9656 37.2341 30.5286 37.7712 30.5286H47.1086C47.6457 30.5286 48.0827 30.9656 48.0827 31.5027V34.5117ZM55.9416 50.3104L51.8781 46.2468C51.5402 45.9086 50.9919 45.9086 50.6536 46.2468L45.9072 50.9933L44.4379 49.5236L51.2658 42.6957L55.3294 46.7592C55.6677 47.0971 56.2159 47.0971 56.5542 46.7592L66.5599 36.7535C66.8978 36.4153 66.8978 35.867 66.5599 35.5288L66.4949 35.4642H69.2824V38.2516L69.2536 38.2228C68.9157 37.8846 68.3674 37.8846 68.0292 38.2228L55.9416 50.3104ZM48.8475 67.9349V64.125H52.6574V67.9349H48.8475ZM54.3891 63.2591V58.9297H58.199V67.9349H54.3891V63.2591ZM65.4725 51.3099H69.2824V67.9349H65.4725V51.3099ZM63.7407 67.9349H59.9308V55.8125H63.7407V67.9349Z" fill="#172B4C"/>
<path id="Vector_2" d="M27.5467 48.377C27.7743 48.377 27.9979 48.2844 28.1589 48.1234C28.3199 47.9624 28.4126 47.7391 28.4126 47.5111C28.4126 47.2835 28.3199 47.0603 28.1589 46.8989C27.9979 46.7373 27.7743 46.6453 27.5467 46.6453C27.319 46.6453 27.0955 46.7373 26.9345 46.8989C26.7735 47.0603 26.6808 47.2835 26.6808 47.5111C26.6808 47.7391 26.7735 47.9624 26.9345 48.1234C27.0955 48.2844 27.319 48.377 27.5467 48.377Z" fill="#172B4C"/>
<path id="Vector_3" d="M35.0956 38.9356H32.5845C32.1062 38.9356 31.7186 39.3232 31.7186 39.8015C31.7186 40.2798 32.1062 40.6674 32.5845 40.6674H35.0956C35.5738 40.6674 35.9615 40.2798 35.9615 39.8015C35.9615 39.3232 35.5735 38.9356 35.0956 38.9356Z" fill="white"/>
<path id="Vector_4" d="M42.3376 40.6674C42.8159 40.6674 43.2035 40.2798 43.2035 39.8015C43.2035 39.3232 42.8159 38.9356 42.3376 38.9356H39.1338C38.6556 38.9356 38.2679 39.3232 38.2679 39.8015C38.2679 40.2798 38.6556 40.6674 39.1338 40.6674H42.3376Z" fill="white"/>
<path id="Vector_5" d="M31.9713 46.2424C31.8103 46.4034 31.7186 46.627 31.7186 46.8546C31.7186 47.0822 31.8103 47.3058 31.9713 47.4668C32.1333 47.6278 32.3565 47.7205 32.5845 47.7205C32.8121 47.7205 33.0354 47.6278 33.1964 47.4668C33.3577 47.3058 33.4504 47.0822 33.4504 46.8546C33.4504 46.627 33.3577 46.4034 33.1964 46.2424C33.0354 46.0814 32.8121 45.9887 32.5845 45.9887C32.3559 45.9887 32.1333 46.0814 31.9713 46.2424Z" fill="white"/>
<path id="Vector_6" d="M35.749 46.8546C35.749 47.3329 36.1366 47.7205 36.6149 47.7205H42.5029C42.9812 47.7205 43.3688 47.3329 43.3688 46.8546C43.3688 46.3763 42.9812 45.9887 42.5029 45.9887H36.6149C36.1366 45.9887 35.749 46.3763 35.749 46.8546Z" fill="white"/>
<path id="Vector_7" d="M42.007 63.259H39.4959C39.0176 63.259 38.63 63.6467 38.63 64.1249C38.63 64.6032 39.0176 64.9908 39.4959 64.9908H42.007C42.4852 64.9908 42.8728 64.6032 42.8728 64.1249C42.8728 63.6467 42.4852 63.259 42.007 63.259Z" fill="white"/>
<path id="Vector_8" d="M32.2225 64.9908H35.4262C35.9045 64.9908 36.2921 64.6032 36.2921 64.1249C36.2921 63.6467 35.9045 63.259 35.4262 63.259H32.2225C31.7442 63.259 31.3566 63.6467 31.3566 64.1249C31.3566 64.6032 31.7442 64.9908 32.2225 64.9908Z" fill="white"/>
<path id="Vector_9" d="M31.3566 53.4037C31.3566 53.882 31.7442 54.2696 32.2225 54.2696H42.007C42.4852 54.2696 42.8728 53.882 42.8728 53.4037C42.8728 52.9255 42.4852 52.5378 42.007 52.5378H32.2225C31.7442 52.5378 31.3566 52.9255 31.3566 53.4037Z" fill="white"/>
<path id="Vector_10" d="M42.0068 59.1029H40.6792C40.201 59.1029 39.8134 59.4905 39.8134 59.9688C39.8134 60.4471 40.201 60.8347 40.6792 60.8347H42.0068C42.4851 60.8347 42.8727 60.4471 42.8727 59.9688C42.8727 59.4905 42.4851 59.1029 42.0068 59.1029Z" fill="white"/>
<path id="Vector_11" d="M32.2225 60.8347H36.7829C37.2612 60.8347 37.6488 60.4471 37.6488 59.9688C37.6488 59.4905 37.2612 59.1029 36.7829 59.1029H32.2225C31.7442 59.1029 31.3566 59.4905 31.3566 59.9688C31.3566 60.4471 31.7442 60.8347 32.2225 60.8347Z" fill="white"/>
</g>
</g>
</svg>
