<svg width="95" height="95" viewBox="0 0 95 95" fill="none" xmlns="http://www.w3.org/2000/svg">
<g id="Group 394">
<rect id="Rectangle 38" width="95" height="95" rx="47.5" fill="#FFB800"/>
<g id="Group">
<path id="Vector" d="M70.9627 26.0022H64.5313C64.1243 26.0022 63.7943 26.3322 63.7943 26.7393C63.7943 27.1463 64.1243 27.4764 64.5313 27.4764H70.9627C71.3697 27.4764 71.6997 27.1463 71.6997 26.7393C71.6997 26.3322 71.3698 26.0022 70.9627 26.0022Z" fill="white"/>
<path id="Vector_2" d="M60.879 27.4764H61.663C62.0701 27.4764 62.4001 27.1463 62.4001 26.7393C62.4001 26.3322 62.0701 26.0022 61.663 26.0022H60.879C60.472 26.0022 60.142 26.3322 60.142 26.7393C60.142 27.1463 60.472 27.4764 60.879 27.4764Z" fill="white"/>
<path id="Vector_3" d="M60.879 30.9388H70.9626C71.3697 30.9388 71.6997 30.6087 71.6997 30.2017C71.6997 29.7946 71.3697 29.4646 70.9626 29.4646H60.879C60.472 29.4646 60.142 29.7946 60.142 30.2017C60.142 30.6087 60.472 30.9388 60.879 30.9388Z" fill="white"/>
<path id="Vector_4" d="M63.5451 65.9859C63.5451 63.0416 62.5621 60.1531 60.7717 57.8194L60.9083 55.303C61.0013 53.59 59.6419 52.1408 57.913 52.1408H49.8447C49.4735 51.8785 49.2483 51.4525 49.2483 50.9924V48.9344C50.4993 48.1253 51.3776 47.2027 52.0228 46.1048H53.4492C55.0994 46.1048 56.4418 44.7623 56.4418 43.1121V37.6075C56.4418 36.679 55.9047 35.8583 55.1015 35.47V31.6068C55.1015 29.848 53.6707 28.4171 51.9119 28.4171H51.8293C51.779 28.4171 51.7381 28.3761 51.7381 28.3259C51.7381 26.5671 50.3072 25.1362 48.5484 25.1362H40.7424C36.8676 25.1362 33.7152 28.2887 33.7152 32.1634V35.4699C32.9121 35.8582 32.3749 36.6789 32.3749 37.6074V40.4069C32.3749 41.7167 33.4405 42.7823 34.7504 42.7823H35.7019C35.9482 44.8654 36.9253 46.7678 38.4559 48.0905C38.815 48.4008 39.1864 48.678 39.5684 48.9257V50.9923C39.5684 51.451 39.3423 51.8772 38.9695 52.1407H30.904C29.1885 52.1407 27.8151 53.5766 27.9088 55.3029L28.0454 57.8193C26.2549 60.1531 25.2719 63.0416 25.2719 65.9859V68.7621C24.9055 69.1728 24.6822 69.7138 24.6822 70.3062C24.6822 71.5866 25.7238 72.6281 27.0042 72.6281H61.8128C63.0932 72.6281 64.1348 71.5865 64.1348 70.3062C64.1348 69.7138 63.9115 69.1728 63.5451 68.7622V65.9859ZM62.0709 65.9859V67.9989C61.9861 67.9894 61.9001 67.9842 61.8128 67.9842H60.22L60.636 60.3196C61.5689 62.0523 62.0709 64.0044 62.0709 65.9859ZM54.8921 37.2476C54.9405 37.3584 54.9679 37.4801 54.9679 37.6076V40.4071C54.9679 40.9041 54.5636 41.3084 54.0666 41.3084H53.19V38.5298L53.6443 38.3716C54.2062 38.1758 54.6482 37.763 54.8921 37.2476ZM49.9711 45.7876H48.1213C47.8231 45.7876 47.5805 45.5451 47.5805 45.2469C47.5805 44.9487 47.8231 44.7062 48.1213 44.7062H49.9711C50.2692 44.7062 50.5118 44.9487 50.5118 45.2469C50.5118 45.5451 50.2692 45.7876 49.9711 45.7876ZM53.4494 44.6307H52.7044C52.9119 44.0389 53.0552 43.419 53.1308 42.7825H54.0666C54.3855 42.7825 54.6897 42.7189 54.9679 42.6044V43.1123C54.9679 43.9496 54.2866 44.6307 53.4494 44.6307ZM35.1896 32.1636C35.1896 29.1017 37.6807 26.6106 40.7426 26.6106H48.5486C49.4945 26.6106 50.2641 27.3802 50.2641 28.3261C50.2641 29.1893 50.9664 29.8915 51.8295 29.8915H51.9121C52.8581 29.8915 53.6276 30.6611 53.6276 31.607V36.3206C53.6276 36.6172 53.4394 36.882 53.1593 36.9796L51.6103 37.519C51.5479 37.5406 51.4836 37.4956 51.4836 37.4285L51.4864 34.4995C51.4954 32.3618 49.4937 30.4975 46.6893 31.3983C45.2788 31.8516 43.5334 31.85 42.1276 31.3983C39.3523 30.5064 37.3216 32.3376 37.3305 34.4972L37.334 37.4287C37.334 37.4963 37.2681 37.5408 37.2072 37.519L35.6577 36.9795C35.3777 36.882 35.1895 36.6171 35.1895 36.3205V32.1636H35.1896ZM33.8493 40.4071V37.6075C33.8493 37.4801 33.8766 37.3583 33.925 37.2475C34.169 37.763 34.611 38.1758 35.1731 38.3716L35.6273 38.5297V41.3083H34.7507C34.2536 41.3084 33.8493 40.904 33.8493 40.4071ZM37.1149 41.9312C37.0904 40.9621 37.1055 39.9336 37.1013 38.9919C37.1467 38.9958 37.1922 38.9981 37.2377 38.9981C38.1141 38.9981 38.8096 38.2858 38.8081 37.4265L38.8047 34.4932C38.7997 33.2964 39.8732 32.2221 41.6766 32.8017C43.3858 33.3509 45.4367 33.3492 47.1403 32.8017C48.8585 32.2497 50.0176 33.2216 50.0123 34.4956L50.0094 37.4267C50.0082 38.3403 50.7891 39.0723 51.7157 38.9919V41.9908C51.6943 42.6278 51.5894 43.2495 51.4115 43.8408C51.0454 43.4657 50.5353 43.2319 49.9711 43.2319H48.1213C47.0103 43.2319 46.1063 44.1358 46.1063 45.2468C46.1063 46.3578 47.0103 47.2617 48.1213 47.2617H49.0578C47.6964 48.3244 46.1482 48.8784 44.4471 48.9066C40.726 48.8769 37.2213 46.1278 37.1149 41.9312ZM41.0428 50.9925V49.7028C42.1082 50.1439 43.2448 50.3725 44.4452 50.381H44.4504C44.4542 50.381 44.458 50.381 44.4619 50.3809C45.6305 50.3627 46.7369 50.1363 47.7745 49.7088V50.9924C47.7745 51.3948 47.8587 51.7844 48.0138 52.1408H40.8026C40.9582 51.7843 41.0428 51.3946 41.0428 50.9925ZM28.181 60.3196L28.2974 62.4641C28.3195 62.8707 28.6677 63.1833 29.0733 63.1602C29.4798 63.1382 29.7914 62.7908 29.7694 62.3843L29.3807 55.2232C29.3334 54.3521 30.0247 53.6151 30.904 53.6151H57.9131C58.7859 53.6151 59.484 54.3455 59.4364 55.2232L58.7438 67.9843H47.1856C47.3264 67.1424 47.7056 66.3505 48.2897 65.7017L48.3108 65.6781C50.5419 63.182 49.8741 59.2789 46.9902 57.6402C46.2502 57.2198 45.3104 57.7441 45.3104 58.6157V61.9601C45.3104 62.1134 45.1857 62.238 45.0324 62.238H43.7846C43.6313 62.238 43.5066 62.1133 43.5066 61.9601V58.6157C43.5066 57.7458 42.5683 57.2189 41.8268 57.6402C38.9347 59.2834 38.2805 63.188 40.5085 65.6805L40.5274 65.7017C41.1114 66.3504 41.4906 67.1423 41.6314 67.9842H30.0734L29.9551 65.8051C29.9331 65.3987 29.5857 65.0866 29.1792 65.1091C28.7728 65.1311 28.4611 65.4785 28.4831 65.8849L28.597 67.9842H27.0042C26.9169 67.9842 26.8309 67.9895 26.7461 67.9989V65.9859C26.7461 64.0045 27.2482 62.0523 28.181 60.3196ZM43.1208 67.9842C42.9699 66.7765 42.4522 65.6364 41.6231 64.7155L41.6054 64.6955C40.1812 63.1024 40.372 60.6389 42.0326 59.2803V61.96C42.0326 62.9261 42.8186 63.712 43.7847 63.712H45.0325C45.9986 63.712 46.7846 62.926 46.7846 61.96V59.2803C48.4342 60.6299 48.6455 63.0916 47.21 64.6976L47.1941 64.7154C46.3649 65.6364 45.8472 66.7765 45.6963 67.9842H43.1208ZM61.8128 71.1541H27.0042C26.5367 71.1541 26.1563 70.7737 26.1563 70.3063C26.1563 69.8389 26.5367 69.4585 27.0042 69.4585H61.8128C62.2803 69.4585 62.6607 69.8388 62.6607 70.3063C62.6607 70.7738 62.2803 71.1541 61.8128 71.1541Z" fill="#172B4C"/>
<path id="Vector_5" d="M74.2628 27.4161C74.6699 27.4161 74.9999 27.0861 74.9999 26.6791V25.2525C74.9999 23.6641 73.7077 22.3719 72.1192 22.3719H59.7225C58.134 22.3719 56.8418 23.6641 56.8418 25.2525V31.4526C56.8418 33.041 58.134 34.3333 59.7225 34.3333C60.0063 34.3333 60.2373 34.5642 60.2373 34.848V38.6823C60.2373 39.2361 60.5958 39.7074 61.1295 39.8551C61.6664 40.0037 62.2148 39.7803 62.4979 39.3081L65.3312 34.5833C65.4237 34.4291 65.593 34.3333 65.7728 34.3333H72.1193C73.7078 34.3333 75 33.041 75 31.4526V30.125C75 29.718 74.67 29.388 74.2629 29.388C73.8559 29.388 73.5259 29.718 73.5259 30.125V31.4526C73.5259 32.2282 72.8949 32.8591 72.1193 32.8591H65.7727C65.0779 32.8591 64.4242 33.2293 64.0669 33.8252L61.7113 37.7533V34.848C61.7113 33.7514 60.8191 32.8591 59.7224 32.8591C58.9468 32.8591 58.3159 32.2282 58.3159 31.4526V25.2525C58.3159 24.477 58.9468 23.846 59.7224 23.846H72.1192C72.8948 23.846 73.5258 24.477 73.5258 25.2525V26.6791C73.5258 27.0861 73.8558 27.4161 74.2628 27.4161Z" fill="white"/>
</g>
</g>
</svg>
