<svg width="148" height="148" viewBox="0 0 148 148" fill="none" xmlns="http://www.w3.org/2000/svg">
<g id="Group 37" filter="url(#filter0_d)">
<circle id="Ellipse 9" cx="74" cy="58" r="34" fill="white"/>
<g id="linkedin (1) 1">
<path id="Vector" d="M83.7385 46H63.2615C62.0125 46 61 47.0125 61 48.2615V68.7385C61 69.9875 62.0125 71 63.2615 71H83.7385C84.9875 71 86 69.9875 86 68.7385V48.2615C86 47.0125 84.9875 46 83.7385 46ZM68.7361 67.5866C68.7361 67.9501 68.4414 68.2448 68.0779 68.2448H65.2765C64.913 68.2448 64.6184 67.9501 64.6184 67.5866V55.8431C64.6184 55.4796 64.913 55.185 65.2765 55.185H68.0779C68.4414 55.185 68.7361 55.4796 68.7361 55.8431V67.5866ZM66.6772 54.078C65.2074 54.078 64.0158 52.8865 64.0158 51.4166C64.0158 49.9468 65.2074 48.7552 66.6772 48.7552C68.1471 48.7552 69.3386 49.9468 69.3386 51.4166C69.3386 52.8865 68.1471 54.078 66.6772 54.078ZM83.3763 67.6397C83.3763 67.9738 83.1054 68.2448 82.7712 68.2448H79.7651C79.4309 68.2448 79.1599 67.9738 79.1599 67.6397V62.1313C79.1599 61.3096 79.401 58.5304 77.0125 58.5304C75.1598 58.5304 74.784 60.4327 74.7086 61.2863V67.6397C74.7086 67.9738 74.4377 68.2448 74.1035 68.2448H71.196C70.8618 68.2448 70.5909 67.9738 70.5909 67.6397V55.7901C70.5909 55.456 70.8618 55.185 71.196 55.185H74.1035C74.4376 55.185 74.7086 55.456 74.7086 55.7901V56.8147C75.3955 55.7837 76.4165 54.988 78.5902 54.988C83.4039 54.988 83.3763 59.4851 83.3763 61.956V67.6397Z" fill="#0077B7"/>
</g>
</g>
<defs>
<filter id="filter0_d" x="0" y="0" width="148" height="148" filterUnits="userSpaceOnUse" color-interpolation-filters="sRGB">
<feFlood flood-opacity="0" result="BackgroundImageFix"/>
<feColorMatrix in="SourceAlpha" type="matrix" values="0 0 0 0 0 0 0 0 0 0 0 0 0 0 0 0 0 0 127 0"/>
<feOffset dy="16"/>
<feGaussianBlur stdDeviation="20"/>
<feColorMatrix type="matrix" values="0 0 0 0 0.603922 0 0 0 0 0.666667 0 0 0 0 0.811765 0 0 0 0.2 0"/>
<feBlend mode="normal" in2="BackgroundImageFix" result="effect1_dropShadow"/>
<feBlend mode="normal" in="SourceGraphic" in2="effect1_dropShadow" result="shape"/>
</filter>
</defs>
</svg>
