<svg width="127" height="30" viewBox="0 0 127 30" fill="none" xmlns="http://www.w3.org/2000/svg">
<g id="Group 209">
<g id="Group 1">
<path id="Vector" d="M64.2798 11.2689L63.415 11.9122C64.6734 14.3022 65.0081 17.0734 64.355 19.6953C63.7019 22.3172 62.1068 24.6056 59.8751 26.1227C57.6433 27.6397 54.9316 28.2788 52.259 27.9176C49.5864 27.5564 47.1406 26.2203 45.3897 24.165C43.6387 22.1097 42.7057 19.4796 42.7691 16.778C42.8324 14.0764 43.8878 11.4931 45.7332 9.52256C47.5786 7.55199 50.0844 6.33254 52.771 6.0976C55.4576 5.86266 58.1363 6.62873 60.2944 8.2492L60.9809 7.43173C58.6199 5.65684 55.6872 4.81946 52.7471 5.08067C49.807 5.34187 47.0672 6.6832 45.0545 8.84665C43.0419 11.0101 41.8987 13.8429 41.8448 16.8C41.7909 19.7572 42.83 22.6299 44.7625 24.8656C46.6949 27.1013 49.384 28.542 52.3126 28.9106C55.2412 29.2793 58.2024 28.5498 60.6266 26.8626C63.0508 25.1753 64.7668 22.6494 65.4445 19.7707C66.1222 16.8921 65.7137 13.864 64.2976 11.2689H64.2798ZM63.5086 10.0494C63.0843 9.45336 62.6068 8.89716 62.082 8.38768L61.3599 9.17388C61.8531 9.64588 62.3008 10.1634 62.6972 10.7195L63.5086 10.0494Z" fill="#FFB800"/>
<path id="Vector_2" d="M60.7222 23.5176C60.5484 23.6919 60.3701 23.8571 60.1828 24.018C59.9956 24.1788 59.9109 24.2502 59.7682 24.3575C59.5578 24.5178 59.3391 24.6669 59.1129 24.8042C58.9524 24.9114 58.7875 25.0096 58.6136 25.1079C58.3506 25.2553 58.0787 25.3938 57.7978 25.5189C57.5928 25.6127 57.3832 25.6931 57.1737 25.769C56.7936 25.9071 56.4049 26.0205 56.0102 26.1085C55.3195 26.2634 54.6138 26.3413 53.9061 26.3408C53.5201 26.3419 53.1344 26.318 52.7515 26.2694C51.9252 26.1724 51.1156 25.9651 50.3442 25.6529C48.8838 25.0625 47.5881 24.1259 46.5683 22.9235C46.3722 22.6912 46.1894 22.4545 46.0155 22.2088C45.7136 21.7705 45.4468 21.309 45.2175 20.8285C45.0621 20.502 44.9267 20.1663 44.8119 19.8234C44.6859 19.4774 44.5817 19.1238 44.4998 18.7647C44.4321 18.4701 44.3815 18.1718 44.3483 17.8713C44.302 17.4903 44.2782 17.107 44.2769 16.7232C44.2769 16.6116 44.2769 16.4954 44.2769 16.3837C44.2783 16.1523 44.2932 15.9211 44.3215 15.6913C44.3215 15.535 44.3572 15.3787 44.3795 15.2446C44.4017 15.1106 44.4597 14.7979 44.5087 14.5924C44.5578 14.387 44.5711 14.3155 44.6113 14.177C44.6692 13.9626 44.7361 13.7526 44.8119 13.5427C44.8528 13.4137 44.9004 13.287 44.9545 13.163C45.0348 12.9486 45.1284 12.7431 45.222 12.5421C45.008 12.4885 44.7762 12.4393 44.5622 12.3947C44.4621 12.5982 44.3728 12.807 44.2948 13.02L44.161 13.3774C44.0897 13.5874 44.0273 13.7973 43.9649 14.0117C43.9292 14.1413 43.8935 14.2708 43.8668 14.4004C43.8178 14.6193 43.7732 14.8471 43.7375 15.0526C43.7108 15.1955 43.6929 15.3384 43.6751 15.4993C43.6484 15.7226 43.6305 15.946 43.6171 16.1738C43.6038 16.4016 43.6171 16.5624 43.6171 16.759C43.6171 16.9555 43.6171 17.2057 43.6171 17.4067C43.6171 17.706 43.6662 18.0053 43.7108 18.3001C43.9189 19.6804 44.4042 21.004 45.1373 22.1909C45.2933 22.4411 45.4627 22.6823 45.6366 22.9191C46.4563 24.0224 47.4879 24.9504 48.6707 25.6485C49.8535 26.3466 51.1636 26.8007 52.5241 26.9841C52.9673 27.0444 53.4142 27.0742 53.8615 27.0734C54.1111 27.0734 54.3474 27.0734 54.5881 27.0466C55.447 26.9884 56.295 26.8202 57.1113 26.5463C57.4234 26.4391 57.7265 26.323 58.0252 26.1934C58.2213 26.1041 58.4086 26.0103 58.6003 25.9165C58.7919 25.8227 59.0817 25.6484 59.3135 25.501C59.4785 25.4027 59.639 25.2911 59.795 25.1839C59.951 25.0767 60.2007 24.8801 60.3923 24.7372C60.584 24.5942 60.6687 24.5049 60.8025 24.3798C60.9362 24.2547 61.1502 24.0492 61.3107 23.8795C61.1457 23.7053 60.9318 23.607 60.7222 23.5176Z" fill="#FFB800"/>
<path id="Vector_3" d="M61.3598 23.8125C61.1993 23.9822 61.0299 24.152 60.8516 24.3128C60.6242 24.2056 60.4058 24.1028 60.1829 24.018C59.5325 23.7548 58.8653 23.5354 58.1858 23.3613L57.4547 23.1781L57.0089 23.0754H56.9197L56.1931 22.9057C55.1436 22.7083 54.1436 22.3045 53.2508 21.7174C52.396 21.0932 51.757 20.2171 51.4231 19.2114L51.3161 18.9434C51.2581 18.8049 51.2046 18.6664 51.1467 18.5235C51.1467 18.4967 51.1467 18.4654 51.111 18.4386C51.0263 18.2331 50.9372 18.0276 50.8346 17.8087C50.3702 16.835 49.7698 15.9326 49.0515 15.1285C48.2178 14.177 46.7155 13.5516 44.9858 13.1406C44.7674 13.087 44.54 13.0424 44.326 12.9977C44.4041 12.7846 44.4934 12.5759 44.5935 12.3723C44.8164 12.417 45.0393 12.4661 45.2533 12.5197C47.0365 12.9664 48.6369 13.6499 49.5507 14.6863C50.3665 15.5913 51.04 16.6156 51.5479 17.7239C51.6504 17.9517 51.744 18.1706 51.8243 18.3761L51.9045 18.5726C51.9045 18.6083 51.9357 18.6441 51.9491 18.6843C52.0383 18.9076 52.123 19.131 52.2121 19.3186C52.5025 20.0647 53.0066 20.7082 53.661 21.168C54.2899 21.5915 54.9887 21.9 55.725 22.0792C56.0192 22.1641 56.3223 22.2356 56.6166 22.3115L57.0222 22.4053L57.156 22.4366L57.945 22.6242C58.8794 22.8444 59.7936 23.1432 60.6777 23.5176C60.9318 23.607 61.1458 23.7053 61.3598 23.8125Z" fill="#FFB800"/>
<path id="Vector_4" d="M60.4416 24.6702C60.2499 24.8265 60.0493 24.9828 59.8442 25.1169C59.5991 25.0007 59.3539 24.898 59.1131 24.8042C58.5373 24.5819 57.9494 24.3925 57.3522 24.2368C57.1071 24.1743 56.8619 24.1118 56.6256 24.0582L56.0461 23.9197C54.6285 23.5936 53.4114 23.3122 52.3727 22.5796C51.9677 22.291 51.6111 21.9396 51.3162 21.5387C51.2601 21.4682 51.2095 21.3936 51.1646 21.3154C50.8711 20.8386 50.6276 20.3326 50.438 19.8055C50.3622 19.6224 50.2909 19.4348 50.2106 19.2427C50.1304 19.0506 50.0591 18.8898 49.9699 18.7066C49.9569 18.6716 49.9421 18.6373 49.9253 18.6039C49.8451 18.4431 49.7604 18.2778 49.6668 18.1036C49.2381 17.346 48.7284 16.6375 48.1466 15.9906C47.3977 15.1419 46.1138 14.5478 44.6115 14.1413C44.402 14.0832 44.1657 14.0296 43.9651 13.976C44.0275 13.7616 44.0899 13.5293 44.1612 13.3417L44.8121 13.507C46.4214 13.9537 47.8123 14.6059 48.6459 15.5529C49.2842 16.2676 49.8391 17.0529 50.2998 17.8936C50.4157 18.108 50.5138 18.3091 50.6029 18.5056C50.7099 18.7379 50.8036 18.9523 50.8883 19.1667C50.9417 19.2918 50.9908 19.4169 51.0398 19.5375C51.4455 20.556 51.7353 21.2886 52.7472 22.0212C53.6745 22.6957 54.8335 22.9637 56.1754 23.2764L56.3671 23.3211L57.1472 23.5042L57.535 23.6025L58.2438 23.8035C58.7553 23.9585 59.2583 24.1404 59.7506 24.3485C59.9913 24.4513 60.2142 24.5719 60.4416 24.6702Z" fill="#FFB800"/>
<path id="Vector_5" d="M59.3627 25.4652C59.1308 25.6126 58.8901 25.7466 58.6494 25.8806C58.3596 25.7556 58.0788 25.6439 57.7979 25.5501C56.9365 25.2562 56.0582 25.0146 55.1677 24.8264C53.7546 24.5003 52.5376 24.2189 51.4989 23.464C51.3432 23.3492 51.1943 23.2254 51.0531 23.0932C50.954 23.0066 50.8603 22.9141 50.7722 22.8162C50.6563 22.6943 50.5491 22.5645 50.4512 22.4276C50.3487 22.2891 50.2596 22.1506 50.1749 22.0122C50.1024 21.8894 50.0369 21.7626 49.9787 21.6325C49.8405 21.3555 49.7246 21.0696 49.6042 20.7748L49.573 20.6899C49.4259 20.3236 49.2744 19.9394 49.0737 19.5285C48.9846 19.3409 48.8821 19.1398 48.7662 18.9344C48.3496 18.2009 47.8549 17.5149 47.2906 16.8884C46.4902 16.0775 45.4908 15.492 44.3929 15.191L43.751 14.9989C43.7866 14.78 43.8312 14.5522 43.8803 14.3467C44.0987 14.4048 44.3261 14.4718 44.5222 14.5388C45.7548 14.8621 46.8795 15.5081 47.7809 16.4105C48.4055 17.108 48.9498 17.8737 49.4036 18.6931C49.5195 18.9031 49.6221 19.113 49.7157 19.3096C49.9029 19.7027 50.05 20.069 50.1615 20.404C50.2551 20.6363 50.3443 20.8507 50.4379 21.0651C50.5588 21.3604 50.7081 21.6432 50.8837 21.9094C50.9461 21.9943 51.0129 22.0836 51.0843 22.1685C51.1556 22.2534 51.2046 22.307 51.2671 22.3785C51.4249 22.5383 51.5932 22.6876 51.7708 22.8252L51.851 22.8832C52.7827 23.5578 53.9418 23.8258 55.2837 24.1385C55.7294 24.2412 56.1752 24.3484 56.679 24.478C56.9108 24.5361 57.1248 24.6031 57.3833 24.679C57.7712 24.7996 58.1724 24.9336 58.5781 25.0989C58.8455 25.2195 59.113 25.3267 59.3627 25.4652Z" fill="#FFB800"/>
<path id="Vector_6" d="M58.0745 26.1397C57.7758 26.2692 57.4727 26.3854 57.1606 26.4926C56.7683 26.3496 56.3849 26.2246 56.0105 26.1218C55.4131 25.9476 54.838 25.8136 54.2942 25.6751C52.881 25.349 51.664 25.0631 50.6253 24.3082C50.1442 23.9734 49.7337 23.5468 49.4172 23.0529C49.2766 22.8381 49.1529 22.6125 49.0472 22.3784C48.9224 22.1149 48.8154 21.8513 48.6995 21.5699C48.7006 21.558 48.7006 21.546 48.6995 21.5341C48.6326 21.3599 48.5568 21.1768 48.4766 20.9847C48.3517 20.6809 48.2091 20.3638 48.0308 20.0243C47.5872 19.199 47.047 18.4297 46.4215 17.7327C45.8294 17.1174 45.1052 16.6454 44.3039 16.3523C44.0944 16.263 43.8581 16.1871 43.6442 16.1067C43.6442 15.8833 43.6754 15.6599 43.7021 15.4321C43.9206 15.5036 44.1479 15.5795 44.3485 15.6599C45.3224 15.9922 46.2039 16.551 46.9207 17.2904C47.7751 18.2341 48.472 19.3095 48.9848 20.4754C49.1096 20.7613 49.2166 21.0338 49.3191 21.2885L49.3503 21.3599C49.4127 21.5207 49.4707 21.6682 49.5376 21.8066C49.6165 22.004 49.7073 22.1965 49.8095 22.3829L49.9299 22.5973C50.029 22.7528 50.1377 22.902 50.2553 23.044C50.4815 23.3124 50.7406 23.551 51.0265 23.7543C51.9538 24.4243 53.1128 24.6968 54.4591 25.005C55.3818 25.2022 56.2926 25.4513 57.1874 25.751C57.4682 25.9119 57.7669 26.0057 58.0745 26.1397Z" fill="#FFB800"/>
<path id="Vector_7" d="M49.3367 21.3735C49.0425 21.2573 48.7527 21.1278 48.4451 20.9982C47.0712 20.3522 45.7466 19.6056 44.482 18.7647C44.219 18.5905 43.9605 18.4163 43.7108 18.242C43.6662 17.9472 43.635 17.6479 43.6172 17.3486L44.3483 17.8713C45.5222 18.6792 46.7478 19.4089 48.0172 20.0557C48.3292 20.212 48.6457 20.3684 48.9712 20.5024C49.096 20.7883 49.203 21.0608 49.3055 21.3154L49.3367 21.3735Z" fill="#FFB800"/>
<path id="Vector_8" d="M49.9297 22.6197C49.6354 22.5482 49.3457 22.4723 49.0648 22.3918C48.7528 22.3025 48.4541 22.2087 48.1732 22.106H48.1287C47.137 21.7645 46.1728 21.3479 45.2444 20.8596C44.9145 20.6854 44.6024 20.5112 44.2993 20.3325C44.1771 20.0045 44.0715 19.6706 43.9828 19.3319C44.2592 19.5106 44.54 19.6848 44.8387 19.8546C46.0711 20.5752 47.3774 21.1608 48.7349 21.6012C49.0069 21.6905 49.2788 21.7709 49.5597 21.8469C49.6386 22.0443 49.7294 22.2367 49.8316 22.4231L49.9297 22.6197Z" fill="#FFB800"/>
<path id="Vector_9" d="M50.2419 23.0753C49.961 23.0753 49.6846 23.0753 49.4172 23.0753H48.6816L47.8569 23.0441C47.4111 23.0217 46.9653 22.9949 46.5641 22.9637C46.252 22.9637 45.9489 22.919 45.6725 22.8922C45.4986 22.6554 45.3292 22.4142 45.1732 22.1641L46.0247 22.2489C46.4972 22.2891 46.9965 22.3249 47.527 22.3561L48.2759 22.3919C48.53 22.3919 48.7886 22.3919 49.0605 22.4187C49.3013 22.4187 49.5509 22.4187 49.805 22.4187L49.9254 22.6331C50.0218 22.7868 50.1275 22.9345 50.2419 23.0753Z" fill="#FFB800"/>
<path id="Vector_10" d="M57.9898 22.6242L57.2008 22.4366C56.7345 21.3071 55.9999 20.3088 55.061 19.5286C54.1571 18.7505 52.9979 18.3352 51.8067 18.3627C51.7264 18.1572 51.6328 17.9159 51.5303 17.7105C52.2436 17.6573 52.9603 17.7455 53.6396 17.9701C54.3188 18.1947 54.9473 18.5512 55.4889 19.0193C56.6384 19.9668 57.504 21.2145 57.9898 22.6242Z" fill="#FFB800"/>
<path id="Vector_11" d="M56.6613 22.3115C56.3448 22.2356 56.0416 22.1641 55.7697 22.0792C55.3473 21.4218 54.8289 20.8315 54.2317 20.3282C53.6529 19.8308 52.9634 19.48 52.2212 19.3052C52.132 19.1042 52.0473 18.8942 51.9582 18.6709C51.9582 18.6307 51.9269 18.5949 51.9136 18.5592C52.9301 18.711 53.8825 19.1495 54.6597 19.8234C55.4797 20.5167 56.1593 21.3613 56.6613 22.3115Z" fill="#FFB800"/>
<path id="Vector_12" d="M54.633 26.993C54.3923 26.993 54.156 27.0198 53.9063 27.0198C53.459 27.0206 53.0122 26.9908 52.569 26.9305C51.7859 26.5843 51.0392 26.1609 50.34 25.6663C49.3424 24.9603 48.4978 24.0592 47.8569 23.0173L48.6816 23.0486C49.7263 24.4674 51.1276 25.5833 52.7428 26.2828C53.3556 26.5633 53.9872 26.8006 54.633 26.993Z" fill="#FFB800"/>
<path id="Vector_13" d="M53.3846 17.3442L52.9076 16.8974L66.8342 0.284433C66.9005 0.202411 66.9831 0.135056 67.0767 0.086618C67.1703 0.0381802 67.2729 0.00971113 67.378 0.00300742C67.4833 -0.0062703 67.5893 0.0059714 67.6897 0.03899C67.7901 0.0720087 67.8827 0.125116 67.962 0.195091C68.0409 0.265143 68.1052 0.350161 68.1511 0.445234C68.197 0.540307 68.2236 0.643553 68.2295 0.749007C68.2368 0.857117 68.222 0.965585 68.186 1.06775C68.15 1.16992 68.0935 1.26363 68.02 1.34313L53.3846 17.3442Z" fill="#FFB800"/>
<path id="Vector_14" d="M54.6953 17.916L54.3075 17.4246L71.1184 3.71073C71.1997 3.64357 71.2938 3.59353 71.3949 3.56359C71.496 3.53366 71.6021 3.52445 71.7068 3.53652C71.8116 3.54807 71.913 3.58053 72.005 3.632C72.097 3.68346 72.1779 3.75288 72.2427 3.83616C72.3075 3.91943 72.355 4.01488 72.3824 4.11686C72.4098 4.21885 72.4166 4.3253 72.4022 4.42993C72.3879 4.53418 72.3528 4.6345 72.2993 4.72502C72.2457 4.81553 72.1746 4.89441 72.0902 4.95704L54.6953 17.916ZM71.6355 3.96089L71.8539 4.61755L71.6355 3.96089Z" fill="#FFB800"/>
</g>
<path id="Vector_15" d="M13.5975 19.1623C13.6142 19.9986 13.3981 20.8231 12.9734 21.5433C12.5744 22.2285 11.9984 22.7933 11.3061 23.1782C10.6116 23.5718 9.82596 23.7752 9.02812 23.7679C8.27096 23.7702 7.52714 23.5681 6.87494 23.1827C6.19019 22.7919 5.62105 22.2262 5.22551 21.5433C4.8041 20.8219 4.58967 19.998 4.60585 19.1623V5.94873H0.000808978V19.4259C-0.0206255 21.018 0.384236 22.5868 1.17325 23.9689C1.94455 25.296 3.06182 26.3878 4.40525 27.1271C5.82345 27.8971 7.41525 28.2894 9.02812 28.2662C10.6456 28.2927 12.2426 27.9003 13.6644 27.1271C15.0004 26.3841 16.1111 25.2928 16.8785 23.9689C17.6692 22.5874 18.0742 21.0182 18.051 19.4259V5.94873H13.593L13.5975 19.1623Z" fill="white"/>
<path id="Vector_16" d="M38.3389 9.29006C37.4444 8.24075 36.3241 7.40836 35.0623 6.85551C33.6439 6.24403 32.1126 5.93959 30.5687 5.9621H21.7643V28.0875H30.5509C32.5675 28.1532 34.559 27.6252 36.2793 26.5687C37.8042 25.5782 39.0176 24.1749 39.7788 22.5215C40.5593 20.798 40.9534 18.924 40.9334 17.0315C40.9408 15.6071 40.7196 14.1908 40.2781 12.8369C39.8645 11.541 39.2062 10.3369 38.3389 9.29006ZM36.2882 17.0315C36.3016 18.1843 36.0895 19.3285 35.6641 20.3997C35.2895 21.3462 34.6385 22.1574 33.7962 22.727C32.7832 23.3477 31.6077 23.6496 30.4216 23.5936H26.3649V10.4738H30.4038C31.5917 10.4214 32.7673 10.7331 33.774 11.3672C34.6218 11.9384 35.28 12.7504 35.6641 13.6991C36.081 14.7597 36.2869 15.8917 36.2704 17.0315H36.2882Z" fill="white"/>
<path id="Vector_17" d="M86.6142 5.97998V28.0875H82.6332L72.1928 14.3602V28.0875H67.5922V9.33475L71.7247 6.25694L82.0091 20.0557V5.97998H86.6142Z" fill="white"/>
<path id="Vector_18" d="M89.5562 28.0875H103.982V23.5891H94.1612V19.0149H102.359V14.521H94.1612V10.4738H103.982V5.97998H89.5562V28.0875Z" fill="white"/>
<path id="Vector_19" d="M118.412 17.1119L126.027 5.97998H120.552L115.76 13.3015L110.749 5.97998H104.954L112.72 16.8037L104.825 28.0875H110.308L115.421 20.623L120.561 28.0875H126.365L118.412 17.1119Z" fill="white"/>
</g>
</svg>
