<svg width="148" height="148" viewBox="0 0 148 148" fill="none" xmlns="http://www.w3.org/2000/svg">
<g id="Group 34" filter="url(#filter0_d)">
<circle id="Ellipse 12" cx="74" cy="58" r="34" fill="white"/>
<g id="twitter 1" clip-path="url(#clip0)">
<path id="Vector" d="M86.6024 50.5214C86.0469 50.7678 85.4703 50.9621 84.8786 51.1027C85.5306 50.4832 86.0208 49.7083 86.2973 48.8434C86.3762 48.5965 86.1081 48.383 85.8851 48.5152C85.062 49.0034 84.1754 49.3697 83.2498 49.6039C83.1961 49.6175 83.1407 49.6244 83.0851 49.6244C82.9165 49.6244 82.7526 49.5618 82.6237 49.4482C81.639 48.5803 80.3724 48.1023 79.0575 48.1023C78.4885 48.1023 77.914 48.191 77.35 48.3659C75.6023 48.908 74.2539 50.3496 73.8308 52.1282C73.6721 52.7953 73.6291 53.463 73.703 54.1128C73.7115 54.1874 73.6762 54.2395 73.6544 54.264C73.6162 54.3068 73.562 54.3314 73.5057 54.3314C73.4995 54.3314 73.493 54.3311 73.4866 54.3305C69.6611 53.9751 66.2114 52.1321 63.773 49.141C63.6487 48.9884 63.4102 49.0071 63.3111 49.1771C62.8336 49.9963 62.5813 50.9333 62.5813 51.8867C62.5813 53.3479 63.1683 54.7249 64.188 55.7287C63.7592 55.627 63.3442 55.4669 62.9586 55.2528C62.7721 55.1491 62.5426 55.2823 62.54 55.4957C62.5133 57.6663 63.7842 59.5978 65.688 60.4675C65.6496 60.4684 65.6113 60.4688 65.5729 60.4688C65.2711 60.4688 64.9656 60.4397 64.6648 60.3822C64.4548 60.3421 64.2783 60.5414 64.3435 60.745C64.9615 62.6742 66.6226 64.0962 68.6103 64.4191C66.9606 65.5266 65.0394 66.1107 63.0399 66.1107L62.4165 66.1104C62.2245 66.1104 62.062 66.2356 62.0131 66.4216C61.9649 66.6048 62.0537 66.7981 62.2175 66.8934C64.4706 68.2046 67.0407 68.8977 69.6509 68.8977C71.9357 68.8977 74.073 68.4442 76.0033 67.5501C77.773 66.7303 79.3368 65.5585 80.6513 64.0672C81.8758 62.6779 82.8334 61.0742 83.4973 59.3006C84.1301 57.61 84.4646 55.806 84.4646 54.0838V54.0017C84.4646 53.7252 84.5897 53.465 84.8079 53.2878C85.6359 52.6155 86.357 51.8241 86.951 50.9356C87.1078 50.701 86.8604 50.407 86.6024 50.5214Z" fill="#76A9EA"/>
</g>
</g>
<defs>
<filter id="filter0_d" x="0" y="0" width="148" height="148" filterUnits="userSpaceOnUse" color-interpolation-filters="sRGB">
<feFlood flood-opacity="0" result="BackgroundImageFix"/>
<feColorMatrix in="SourceAlpha" type="matrix" values="0 0 0 0 0 0 0 0 0 0 0 0 0 0 0 0 0 0 127 0"/>
<feOffset dy="16"/>
<feGaussianBlur stdDeviation="20"/>
<feColorMatrix type="matrix" values="0 0 0 0 0.603922 0 0 0 0 0.666667 0 0 0 0 0.811765 0 0 0 0.2 0"/>
<feBlend mode="normal" in2="BackgroundImageFix" result="effect1_dropShadow"/>
<feBlend mode="normal" in="SourceGraphic" in2="effect1_dropShadow" result="shape"/>
</filter>
<clipPath id="clip0">
<rect width="25" height="25" fill="white" transform="translate(62 46)"/>
</clipPath>
</defs>
</svg>
