<svg width="148" height="148" viewBox="0 0 148 148" fill="none" xmlns="http://www.w3.org/2000/svg">
<g id="Group 36" filter="url(#filter0_d)">
<circle id="Ellipse 10" cx="74" cy="58" r="34" fill="white"/>
<g id="whatsapp 1" clip-path="url(#clip0)">
<g id="Group">
<path id="Vector" d="M73.8938 45.015C67.2914 45.3404 62.0811 51.0319 62.1011 57.8738C62.1072 59.9576 62.5932 61.9245 63.4506 63.6624L62.1342 70.2765C62.063 70.6343 62.3748 70.9475 62.7181 70.8634L68.9794 69.3279C70.5881 70.1573 72.3949 70.6364 74.3071 70.6666C81.0555 70.7733 86.6825 65.2269 86.8928 58.2443C87.1183 50.7595 81.1502 44.6573 73.8938 45.015ZM81.3649 64.9398C79.5312 66.8379 77.0932 67.8831 74.5 67.8831C72.9816 67.8831 71.5279 67.5305 70.1791 66.8351L69.3071 66.3855L65.4683 67.3269L66.2764 63.2667L65.8468 62.3959C65.1466 60.9765 64.7916 59.4417 64.7916 57.834C64.7916 55.1498 65.8014 52.6263 67.6351 50.7282C69.4524 48.8471 71.9302 47.7848 74.5002 47.7848C77.0934 47.7849 79.5313 48.8302 81.365 50.7281C83.1987 52.6262 84.2085 55.1497 84.2086 57.8338C84.2085 60.4941 83.1822 63.0588 81.3649 64.9398Z" fill="#7AD06D"/>
<path id="Vector_2" d="M80.5175 60.6173L78.1158 59.9034C77.8 59.8096 77.46 59.9023 77.2299 60.145L76.6426 60.7644C76.395 61.0255 76.0192 61.1094 75.6914 60.9722C74.5553 60.4963 72.1654 58.2968 71.5551 57.1966C71.379 56.8793 71.4081 56.4825 71.6243 56.1929L72.1371 55.5063C72.338 55.2373 72.3804 54.876 72.2475 54.565L71.2371 52.1995C70.995 51.6329 70.2956 51.468 69.8386 51.868C69.1683 52.4548 68.373 53.3466 68.2763 54.3345C68.1059 56.0762 68.8275 58.2719 71.5565 60.9082C74.7092 63.954 77.2338 64.3564 78.8776 63.9442C79.81 63.7105 80.5551 62.7734 81.0253 62.0061C81.3459 61.483 81.0927 60.7882 80.5175 60.6173Z" fill="#7AD06D"/>
</g>
</g>
</g>
<defs>
<filter id="filter0_d" x="0" y="0" width="148" height="148" filterUnits="userSpaceOnUse" color-interpolation-filters="sRGB">
<feFlood flood-opacity="0" result="BackgroundImageFix"/>
<feColorMatrix in="SourceAlpha" type="matrix" values="0 0 0 0 0 0 0 0 0 0 0 0 0 0 0 0 0 0 127 0"/>
<feOffset dy="16"/>
<feGaussianBlur stdDeviation="20"/>
<feColorMatrix type="matrix" values="0 0 0 0 0.603922 0 0 0 0 0.666667 0 0 0 0 0.811765 0 0 0 0.2 0"/>
<feBlend mode="normal" in2="BackgroundImageFix" result="effect1_dropShadow"/>
<feBlend mode="normal" in="SourceGraphic" in2="effect1_dropShadow" result="shape"/>
</filter>
<clipPath id="clip0">
<rect width="25" height="25.8772" fill="white" transform="translate(62 45)"/>
</clipPath>
</defs>
</svg>
