<svg width="148" height="148" viewBox="0 0 148 148" fill="none" xmlns="http://www.w3.org/2000/svg">
<g id="Group 35" filter="url(#filter0_d)">
<circle id="Ellipse 11" cx="74" cy="58" r="34" fill="white"/>
<g id="youtube (2) 1">
<path id="Vector" d="M81.8078 49.6548H67.1922C64.3246 49.6548 62 51.9794 62 54.847V62.1532C62 65.0208 64.3246 67.3454 67.1922 67.3454H81.8078C84.6754 67.3454 87 65.0208 87 62.1532V54.847C87 51.9794 84.6754 49.6548 81.8078 49.6548ZM78.2964 58.8556L71.4602 62.116C71.278 62.2029 71.0676 62.0701 71.0676 61.8683V55.1436C71.0676 54.9389 71.2835 54.8063 71.4661 54.8988L78.3023 58.3631C78.5056 58.466 78.502 58.7575 78.2964 58.8556Z" fill="#F61C0D"/>
</g>
</g>
<defs>
<filter id="filter0_d" x="0" y="0" width="148" height="148" filterUnits="userSpaceOnUse" color-interpolation-filters="sRGB">
<feFlood flood-opacity="0" result="BackgroundImageFix"/>
<feColorMatrix in="SourceAlpha" type="matrix" values="0 0 0 0 0 0 0 0 0 0 0 0 0 0 0 0 0 0 127 0" result="hardAlpha"/>
<feOffset dy="16"/>
<feGaussianBlur stdDeviation="20"/>
<feColorMatrix type="matrix" values="0 0 0 0 0.603922 0 0 0 0 0.666667 0 0 0 0 0.811765 0 0 0 0.2 0"/>
<feBlend mode="normal" in2="BackgroundImageFix" result="effect1_dropShadow"/>
<feBlend mode="normal" in="SourceGraphic" in2="effect1_dropShadow" result="shape"/>
</filter>
</defs>
</svg>
