<svg width="84" height="70" viewBox="0 0 84 70" fill="none" xmlns="http://www.w3.org/2000/svg">
<rect width="84" height="58" rx="10" fill="#F4F4F4"/>
<mask id="mask0_1996:622" style="mask-type:alpha" maskUnits="userSpaceOnUse" x="0" y="0" width="84" height="58">
<rect width="84" height="58" rx="10" fill="#C4C4C4"/>
</mask>
<g mask="url(#mask0_1996:622)">
<path d="M97.5406 58.0012H30.4594C25.7845 58.0012 22 54.2088 22 49.5241V9.36964C22 4.68495 25.7845 0.892578 30.4594 0.892578H97.5406C102.216 0.892578 106 4.68495 106 9.36964V49.5241C106 54.2088 102.216 58.0012 97.5406 58.0012Z" fill="#42A4F5"/>
<path d="M97.5406 57.1086H30.4594C25.7845 57.1086 22 53.3162 22 48.6315V8.47706C22 3.79237 25.7845 0 30.4594 0H97.5406C102.216 0 106 3.79237 106 8.47706V48.6315C106 53.3162 102.216 57.1086 97.5406 57.1086Z" fill="#8FC9F7"/>
<path d="M50.0499 7.51172H31.7212C30.3855 7.51172 29.3467 8.62712 29.3467 9.89124V31.9762C29.3467 33.0916 30.0887 33.9839 31.0534 34.2814C31.1276 28.8531 35.5057 24.4658 40.9227 24.4658C46.3396 24.4658 50.7177 28.8531 50.7919 34.2814C51.7566 33.9839 52.4986 33.0916 52.4986 31.9762V9.9656C52.4244 8.62712 51.3855 7.51172 50.0499 7.51172ZM40.8484 22.7555C37.1382 22.7555 34.17 19.7811 34.17 16.0631C34.17 12.3451 37.1382 9.37072 40.8484 9.37072C44.5587 9.37072 47.5269 12.3451 47.5269 16.0631C47.5269 19.7811 44.5587 22.7555 40.8484 22.7555Z" fill="#E3F1FC"/>
<path d="M40.8484 9.36914C37.1381 9.36914 34.1699 12.3435 34.1699 16.0616C34.1699 19.7796 37.1381 22.754 40.8484 22.754C44.5586 22.754 47.5268 19.7796 47.5268 16.0616C47.5268 12.3435 44.5586 9.36914 40.8484 9.36914Z" fill="#64B4F5"/>
<path d="M40.8487 24.541C35.4318 24.541 31.0537 28.9283 30.9795 34.3566C31.2021 34.4309 31.4247 34.5053 31.7215 34.5053H50.0502C50.2728 34.5053 50.5696 34.4309 50.7922 34.3566C50.718 28.9283 46.2657 24.541 40.8487 24.541Z" fill="#64B4F5"/>
<path d="M92.9392 7.51172H60.0664V12.4195H92.9392V7.51172Z" fill="#64B4F5"/>
<path d="M92.9392 14.8711H60.0664V19.7789H92.9392V14.8711Z" fill="#64B4F5"/>
<path d="M53.3149 41.5664H29.3467V46.4742H53.3149V41.5664Z" fill="#64B4F5"/>
<path d="M80.4741 41.5664H56.5059V46.4742H80.4741V41.5664Z" fill="#64B4F5"/>
<path d="M98.3576 41.5664H83.665V46.4742H98.3576V41.5664Z" fill="#64B4F5"/>
<path d="M97.2441 32.9418H82.4773C81.8095 32.9418 81.29 32.4213 81.29 31.7521V23.6468C81.29 22.9776 81.8095 22.457 82.4773 22.457H97.2441C97.912 22.457 98.4314 22.9776 98.4314 23.6468V31.7521C98.3572 32.4213 97.8377 32.9418 97.2441 32.9418Z" fill="#FFE082"/>
</g>
<path d="M42 48C36.47 48 32 52.47 32 58C32 63.53 36.47 68 42 68C47.53 68 52 63.53 52 58C52 52.47 47.53 48 42 48ZM47 61.59L45.59 63L42 59.41L38.41 63L37 61.59L40.59 58L37 54.41L38.41 53L42 56.59L45.59 53L47 54.41L43.41 58L47 61.59Z" fill="#E82627"/>
</svg>
