<?xml version="1.0" standalone="no"?>
<!DOCTYPE svg PUBLIC "-//W3C//DTD SVG 20010904//EN"
 "http://www.w3.org/TR/2001/REC-SVG-20010904/DTD/svg10.dtd">
<svg version="1.0" xmlns="http://www.w3.org/2000/svg"
 width="300.000000pt" height="39.000000pt" viewBox="0 0 300.000000 39.000000"
 preserveAspectRatio="xMidYMid meet">

<g transform="translate(0.000000,39.000000) scale(0.100000,-0.100000)"
fill="#000000" stroke="none">
<path d="M169 322 c-171 -99 -171 -99 -167 -130 3 -23 24 -39 146 -110 139
-81 144 -83 167 -68 25 16 25 17 25 181 0 158 -1 164 -22 179 -12 9 -25 16
-28 15 -3 0 -57 -30 -121 -67z m146 -127 l0 -76 -50 -29 -51 -29 -62 39 -62
39 0 56 0 56 62 39 62 39 51 -29 50 -29 0 -76z"/>
<path d="M540 240 l0 -130 40 0 40 0 0 130 0 130 -40 0 -40 0 0 -130z"/>
<path d="M637 363 c-4 -3 -7 -15 -7 -25 0 -13 8 -18 30 -18 29 0 30 -2 30 -45
0 -43 -1 -45 -30 -45 -25 0 -30 -4 -30 -25 0 -23 3 -25 48 -25 40 0 53 5 75
28 60 62 18 162 -68 162 -23 0 -45 -3 -48 -7z"/>
<path d="M880 366 c0 -3 14 -41 30 -86 17 -45 30 -83 30 -85 0 -2 -10 -5 -21
-7 -12 -2 -26 -13 -30 -25 -8 -22 -6 -23 35 -23 30 0 46 -5 50 -15 5 -14 66
-22 78 -10 3 3 -18 61 -46 130 l-50 125 -38 0 c-21 0 -38 -2 -38 -4z"/>
<path d="M1085 357 c-3 -7 -4 -65 -3 -128 l3 -114 40 0 40 0 0 125 0 125 -38
3 c-25 2 -39 -1 -42 -11z"/>
<path d="M1180 345 c0 -21 5 -25 30 -25 29 0 30 -2 30 -45 0 -43 -1 -45 -30
-45 -25 0 -30 -4 -30 -25 0 -23 3 -25 48 -25 64 0 92 28 92 90 0 62 -37 100
-97 100 -39 0 -43 -2 -43 -25z"/>
<path d="M1360 240 l0 -130 39 0 40 0 3 53 3 52 43 3 c38 3 43 6 40 25 -2 18
-11 23 -45 25 l-43 3 0 50 0 49 -40 0 -40 0 0 -130z"/>
<path d="M1460 345 c0 -20 5 -25 25 -25 16 0 25 -6 25 -15 0 -11 11 -15 40
-15 l40 0 0 40 0 40 -65 0 c-63 0 -65 -1 -65 -25z"/>
<path d="M1630 240 l0 -130 40 0 40 0 0 130 0 130 -40 0 -40 0 0 -130z"/>
<path d="M1730 345 c0 -21 5 -25 30 -25 28 0 30 -2 30 -40 0 -38 -2 -40 -30
-40 -25 0 -30 -4 -30 -25 0 -28 -2 -27 58 -16 23 5 42 4 42 0 0 -5 -16 -9 -35
-9 -19 0 -35 -2 -35 -5 0 -2 8 -20 17 -40 15 -32 20 -35 60 -35 24 0 43 2 43
6 0 3 -10 22 -22 44 -21 36 -22 39 -5 57 27 31 22 91 -10 125 -21 22 -36 28
-70 28 -39 0 -43 -2 -43 -25z"/>
<path d="M1937 342 c-24 -25 -27 -35 -27 -103 0 -69 2 -77 28 -102 48 -46 52
-39 52 103 0 143 -5 152 -53 102z"/>
<path d="M2010 345 c0 -20 5 -25 24 -25 19 0 25 -6 28 -27 3 -24 7 -26 43 -26
34 0 41 3 43 22 2 15 -6 34 -24 52 -22 23 -36 29 -71 29 -39 0 -43 -2 -43 -25z"/>
<path d="M2270 362 c0 -4 14 -43 30 -85 17 -43 30 -80 30 -83 0 -2 -9 -4 -20
-4 -16 0 -40 -26 -40 -44 0 -3 17 -6 39 -6 22 0 44 -6 51 -15 15 -18 80 -20
80 -3 0 7 -21 66 -47 130 l-47 118 -38 0 c-21 0 -38 -3 -38 -8z"/>
<path d="M2497 342 c-34 -36 -36 -80 -4 -110 18 -17 36 -22 80 -22 l57 0 0
-50 c0 -58 11 -63 52 -23 38 36 38 80 0 116 -23 22 -37 27 -79 27 l-52 0 -3
42 c-4 51 -16 56 -51 20z"/>
<path d="M2560 345 c0 -22 4 -25 35 -25 19 0 35 -4 35 -10 0 -5 18 -10 40 -10
47 0 49 7 12 43 -22 21 -38 27 -75 27 -43 0 -47 -2 -47 -25z"/>
<path d="M2755 357 c-3 -7 -4 -65 -3 -128 l3 -114 40 0 40 0 0 125 0 125 -38
3 c-25 2 -39 -1 -42 -11z"/>
<path d="M2917 364 c-4 -4 -7 -27 -7 -51 0 -41 -1 -43 -30 -43 -25 0 -30 -4
-30 -25 0 -21 5 -25 29 -25 29 0 30 -2 33 -52 l3 -53 40 0 40 0 0 125 0 125
-35 3 c-20 2 -39 0 -43 -4z"/>
<path d="M826 243 c-22 -60 -41 -114 -44 -121 -3 -8 8 -12 36 -12 l40 0 21 67
c25 80 25 87 3 136 l-17 38 -39 -108z"/>
<path d="M2212 237 c-23 -63 -42 -117 -42 -120 0 -4 17 -7 38 -7 l38 0 24 74
c22 72 22 74 5 120 -10 25 -18 46 -19 46 -1 0 -20 -51 -44 -113z"/>
<path d="M2060 180 c0 -15 -7 -20 -25 -20 -20 0 -25 -5 -25 -25 0 -23 4 -25
43 -25 34 0 49 6 70 28 42 43 36 62 -18 62 -38 0 -45 -3 -45 -20z"/>
<path d="M1506 175 c-3 -8 -15 -15 -26 -15 -15 0 -20 -7 -20 -25 0 -24 2 -25
65 -25 l65 0 0 40 c0 40 0 40 -39 40 -25 0 -41 -5 -45 -15z"/>
<path d="M2470 176 c0 -7 9 -25 21 -40 17 -22 28 -26 70 -26 46 0 49 2 49 25
0 21 -5 25 -30 25 -20 0 -30 5 -30 15 0 11 -11 15 -40 15 -27 0 -40 -4 -40
-14z"/>
</g>
</svg>
