<svg width="24" height="24" viewBox="0 0 24 24" fill="none" xmlns="http://www.w3.org/2000/svg">
<path d="M21 5H23V19H21V5ZM17 5H19V19H17V5ZM14 5H2C1.45 5 1 5.45 1 6V18C1 18.55 1.45 19 2 19H14C14.55 19 15 18.55 15 18V6C15 5.45 14.55 5 14 5ZM13 17H3V7H13V17Z" fill="#A6A6A6"/>
<path d="M7.9998 11.8902C9.07676 11.8902 9.9498 11.0172 9.9498 9.94023C9.9498 8.86328 9.07676 7.99023 7.9998 7.99023C6.92285 7.99023 6.0498 8.86328 6.0498 9.94023C6.0498 11.0172 6.92285 11.8902 7.9998 11.8902Z" fill="#A6A6A6"/>
<path d="M11.8904 15.3504C11.8904 14.0504 9.30035 13.4004 8.00035 13.4004C6.70035 13.4004 4.11035 14.0504 4.11035 15.3504V16.0004H11.8904V15.3504Z" fill="#A6A6A6"/>
</svg>
