<svg width="35" height="31" viewBox="0 0 35 31" fill="none" xmlns="http://www.w3.org/2000/svg">
<g style="mix-blend-mode:luminosity">
<path d="M6.55717 10.2502H28.4143L34.9714 16.4003H0L6.55717 10.2502Z" fill="#445879"/>
<path d="M7.64994 12.3002H27.3213L32.7856 17.4251C32.7856 17.4251 32.3485 22.55 31.5835 22.55H3.16922C2.51348 22.55 2.18567 17.4251 2.18567 17.4251L7.64994 12.3002Z" fill="#364a6b"/>
<path d="M24.0428 16.4001V18.4501C24.0428 19.5776 23.0592 20.5001 21.8571 20.5001H13.1142C11.9121 20.5001 10.9285 19.5776 10.9285 18.4501V16.4001H0V28.7C0 29.8275 0.983553 30.75 2.18569 30.75H32.7856C33.9878 30.75 34.9713 29.8275 34.9713 28.7V16.4001H24.0428Z" fill="#445879"/>
<path d="M23.8243 7.17513H20.7642V1.02505C20.7642 0.41002 20.3271 0 19.6713 0H15.3C14.6442 0 14.2071 0.41002 14.2071 1.02505V7.17513H11.1472C9.94505 7.17513 9.50789 7.89261 10.0543 8.8151L16.3929 14.6576C16.9393 15.5801 17.9228 15.5801 18.5786 14.6576L24.9172 8.8151C25.4635 7.89261 25.0264 7.17513 23.8243 7.17513Z" fill="#475F6C"/>
</g>
</svg>
