<svg width="84" height="66" viewBox="0 0 84 66" fill="none" xmlns="http://www.w3.org/2000/svg">
<path d="M75.5406 58.0012H8.45936C3.78445 58.0012 0 54.2088 0 49.5241V9.36964C0 4.68495 3.78445 0.892578 8.45936 0.892578H75.5406C80.2156 0.892578 84 4.68495 84 9.36964V49.5241C84 54.2088 80.2156 58.0012 75.5406 58.0012Z" fill="#42A4F5"/>
<path d="M75.5406 57.1086H8.45936C3.78445 57.1086 0 53.3162 0 48.6315V8.47706C0 3.79237 3.78445 0 8.45936 0H75.5406C80.2156 0 84 3.79237 84 8.47706V48.6315C84 53.3162 80.2156 57.1086 75.5406 57.1086Z" fill="#8FC9F7"/>
<path d="M28.0499 7.51172H9.72124C8.38555 7.51172 7.34668 8.62712 7.34668 9.89124V31.9762C7.34668 33.0916 8.08873 33.9839 9.0534 34.2814C9.1276 28.8531 13.5057 24.4658 18.9227 24.4658C24.3396 24.4658 28.7177 28.8531 28.7919 34.2814C29.7566 33.9839 30.4986 33.0916 30.4986 31.9762V9.9656C30.4244 8.62712 29.3855 7.51172 28.0499 7.51172ZM18.8484 22.7555C15.1382 22.7555 12.17 19.7811 12.17 16.0631C12.17 12.3451 15.1382 9.37072 18.8484 9.37072C22.5587 9.37072 25.5269 12.3451 25.5269 16.0631C25.5269 19.7811 22.5587 22.7555 18.8484 22.7555Z" fill="#E3F1FC"/>
<path d="M18.8484 9.36914C15.1381 9.36914 12.1699 12.3435 12.1699 16.0616C12.1699 19.7796 15.1381 22.754 18.8484 22.754C22.5586 22.754 25.5268 19.7796 25.5268 16.0616C25.5268 12.3435 22.5586 9.36914 18.8484 9.36914Z" fill="#64B4F5"/>
<path d="M18.8487 24.541C13.4318 24.541 9.0537 28.9283 8.97949 34.3566C9.20211 34.4309 9.42472 34.5053 9.72154 34.5053H28.0502C28.2728 34.5053 28.5696 34.4309 28.7922 34.3566C28.718 28.9283 24.2657 24.541 18.8487 24.541Z" fill="#64B4F5"/>
<path d="M70.9392 7.51172H38.0664V12.4195H70.9392V7.51172Z" fill="#64B4F5"/>
<path d="M70.9392 14.8711H38.0664V19.7789H70.9392V14.8711Z" fill="#64B4F5"/>
<path d="M31.3149 41.5664H7.34668V46.4742H31.3149V41.5664Z" fill="#64B4F5"/>
<path d="M58.4741 41.5664H34.5059V46.4742H58.4741V41.5664Z" fill="#64B4F5"/>
<path d="M76.3576 41.5664H61.665V46.4742H76.3576V41.5664Z" fill="#64B4F5"/>
<path d="M75.2441 32.9418H60.4773C59.8095 32.9418 59.29 32.4213 59.29 31.7521V23.6468C59.29 22.9776 59.8095 22.457 60.4773 22.457H75.2441C75.912 22.457 76.4314 22.9776 76.4314 23.6468V31.7521C76.3572 32.4213 75.8377 32.9418 75.2441 32.9418Z" fill="#FFE082"/>
<path d="M42 46C36.48 46 32 50.48 32 56C32 61.52 36.48 66 42 66C47.52 66 52 61.52 52 56C52 50.48 47.52 46 42 46ZM40 61L35 56L36.41 54.59L40 58.17L47.59 50.58L49 52L40 61Z" fill="#2FB67E"/>
</svg>
