<svg width="105" height="61" viewBox="0 0 105 61" fill="none" xmlns="http://www.w3.org/2000/svg">
<g id="282_Arrow_Set 7">
<path id="XMLID_521_" d="M72.8619 23.819C56.9088 30.4418 41.2459 30.6742 25.1188 25.2133C26.279 23.9933 27.2652 24.458 28.0193 24.6904C33.8204 26.259 39.7956 26.4333 45.7127 26.6657C54.2403 27.0142 62.3039 25.039 70.1934 21.8438C70.5414 21.7276 70.8315 21.4952 71.5276 21.0304C67.5249 20.2171 63.5221 21.6114 60.0414 19.9847C60.0994 19.7523 60.0994 19.4618 60.1575 19.2295C62.768 19.0552 65.4365 18.8809 68.047 18.6485C70.6575 18.4161 73.2099 18.1257 75.8204 17.9514C77.7348 17.8352 78.547 18.7647 77.8508 20.5076C76.9807 22.7733 75.7624 24.8647 74.6602 27.0142C74.5442 27.2466 74.3702 27.5371 74.1381 27.6533C73.5 27.8857 72.8619 27.9438 72.1657 28.118C72.0497 27.5371 71.7597 26.898 71.8177 26.3752C71.9337 25.678 72.3978 25.039 72.8619 23.819Z" fill="white"/>
</g>
</svg>
