<svg width="54" height="13" viewBox="0 0 54 13" fill="none" xmlns="http://www.w3.org/2000/svg">
<path id="XMLID_521_" d="M6.13812 6.81899C22.0912 13.4418 37.7541 13.6742 53.8812 8.21328C52.721 6.99328 51.7348 7.45804 50.9807 7.69042C45.1796 9.25899 39.2044 9.43328 33.2873 9.66566C24.7597 10.0142 16.6961 8.03899 8.80663 4.84375C8.45856 4.72756 8.16851 4.49518 7.47237 4.03042C11.4751 3.21709 15.4779 4.61137 18.9586 2.98471C18.9006 2.75233 18.9006 2.46185 18.8425 2.22947C16.232 2.05518 13.5635 1.8809 10.953 1.64852C8.34254 1.41613 5.79006 1.12566 3.17956 0.951373C1.2652 0.835183 0.453045 1.76471 1.14918 3.50756C2.01934 5.77328 3.23757 7.86471 4.33978 10.0142C4.45581 10.2466 4.62983 10.5371 4.86188 10.6533C5.5 10.8857 6.13812 10.9438 6.83425 11.118C6.95027 10.5371 7.24033 9.89804 7.18232 9.37518C7.0663 8.67804 6.60221 8.03899 6.13812 6.81899Z" fill="white"/>
</svg>
