<svg width="40" height="40" viewBox="0 0 40 40" fill="none" xmlns="http://www.w3.org/2000/svg">
<g id="Group 566">
<rect id="Rectangle 40" width="40" height="40" rx="20" fill="#FFB800"/>
<g id="Group 28">
<path id="Vector" d="M10.8259 28.0179C10.4153 28.0179 10.0205 28.1204 9.67026 28.3129C7.8253 25.9478 6.81263 23.0099 6.81263 20.0001C6.81263 12.5446 12.8779 6.47932 20.3334 6.47932C21.2397 6.47932 22.1456 6.56951 23.0261 6.74743C23.3358 6.81009 23.6383 6.60957 23.701 6.29939C23.7637 5.98921 23.5632 5.68709 23.253 5.6242C22.298 5.43129 21.3158 5.3335 20.3334 5.3335C16.4159 5.3335 12.7327 6.8591 9.96253 9.62922C7.19241 12.3993 5.66681 16.0825 5.66681 20.0001C5.66681 23.2954 6.78578 26.5113 8.82297 29.0894C8.56069 29.4813 8.4197 29.9419 8.4197 30.4242C8.4197 31.0669 8.67012 31.6711 9.12465 32.1254C9.57895 32.58 10.1832 32.8304 10.8259 32.8304C11.4687 32.8304 12.0729 32.58 12.5274 32.1254C12.982 31.6711 13.2322 31.0667 13.2322 30.4239C13.2322 29.7814 12.982 29.1769 12.5274 28.7226C12.0729 28.2681 11.4687 28.0179 10.8259 28.0179ZM11.7171 31.3153C11.4792 31.5534 11.1625 31.6846 10.8259 31.6846C10.4893 31.6846 10.1729 31.5534 9.93478 31.3153C9.69666 31.0772 9.56552 30.7607 9.56552 30.4242C9.56552 30.0873 9.69666 29.7709 9.93478 29.5328C10.1727 29.2947 10.4893 29.1637 10.8259 29.1637C11.1625 29.1637 11.479 29.2949 11.7171 29.5328C11.9552 29.7709 12.0863 30.0873 12.0863 30.4242C12.0863 30.7607 11.9552 31.0772 11.7171 31.3153Z" fill="#172B4C"/>
<path id="Vector_2" d="M31.8434 10.9097C32.4662 9.97536 32.3662 8.69795 31.5424 7.87416C31.0879 7.41986 30.4836 7.16943 29.8409 7.16943C29.1981 7.16943 28.5939 7.41986 28.1394 7.87416C27.6849 8.32869 27.4347 8.93293 27.4347 9.57567C27.4347 10.2184 27.6849 10.8226 28.1394 11.2772C28.5939 11.7317 29.1981 11.9819 29.8409 11.9819C30.2515 11.9819 30.6463 11.8794 30.9966 11.6869C32.8415 14.0522 33.8542 16.99 33.8542 19.9998C33.8542 27.4552 27.7889 33.5205 20.3334 33.5205C19.436 33.5205 18.5386 33.4321 17.6665 33.2575C17.3563 33.1955 17.0544 33.3967 16.9922 33.7069C16.9302 34.0173 17.1314 34.319 17.4416 34.3812C18.3876 34.5703 19.3606 34.6663 20.3334 34.6663C24.251 34.6663 27.9342 33.1407 30.7043 30.3706C33.4744 27.6005 35 23.9173 35 19.9998C35 16.7042 33.8808 13.488 31.8434 10.9097ZM28.9497 10.467C28.7116 10.2289 28.5805 9.91248 28.5805 9.57567C28.5805 9.23908 28.7116 8.92263 28.9497 8.68452C29.1876 8.4464 29.5043 8.31526 29.8409 8.31526C30.1775 8.31526 30.4941 8.4464 30.7323 8.68452C31.2235 9.17597 31.2235 9.97559 30.7323 10.467C30.4941 10.7049 30.1775 10.8361 29.8409 10.8361C29.5041 10.8361 29.1876 10.7049 28.9497 10.467Z" fill="#172B4C"/>
<path id="Vector_3" d="M17.9693 29.8538C17.9693 30.1703 18.226 30.4268 18.5422 30.4268H22.1244C22.4409 30.4268 22.6974 30.1703 22.6974 29.8538V28.7432C23.4506 28.5404 24.1708 28.2419 24.8476 27.852L25.6317 28.6362C25.7392 28.7436 25.8848 28.804 26.037 28.804C26.1888 28.804 26.3347 28.7436 26.4421 28.636L28.9741 26.1022C29.1977 25.8784 29.1977 25.5156 28.9741 25.292L28.1908 24.5088C28.5807 23.832 28.8792 23.1118 29.082 22.3585H30.1884C30.5048 22.3585 30.7613 22.1021 30.7613 21.7856V18.2034C30.7613 17.8869 30.5048 17.6305 30.1884 17.6305H29.0817C28.879 16.8774 28.5807 16.1572 28.1908 15.4805L28.9698 14.7014C29.0773 14.594 29.1377 14.4481 29.1377 14.2961C29.1375 14.1442 29.077 13.9983 28.9696 13.8909L26.4356 11.3589C26.212 11.1353 25.8493 11.1353 25.6255 11.3591L24.8476 12.1372C24.1708 11.7474 23.4506 11.4488 22.6974 11.2461V10.1457C22.6974 9.82922 22.4409 9.57275 22.1244 9.57275H18.5422C18.226 9.57275 17.9693 9.82922 17.9693 10.1457V11.2463C17.2162 11.4488 16.496 11.7474 15.8193 12.1372L15.0411 11.3591C14.8176 11.1355 14.4548 11.1353 14.231 11.3589L11.6972 13.8911C11.5896 13.9985 11.5291 14.1442 11.5291 14.2961C11.5291 14.4481 11.5896 14.594 11.697 14.7014L12.476 15.4805C12.0862 16.1572 11.7876 16.8772 11.5849 17.6305H10.4804C10.164 17.6305 9.90753 17.8869 9.90753 18.2031L9.90552 21.7854C9.90529 21.9374 9.96572 22.0833 10.0731 22.1907C10.1806 22.2981 10.3263 22.3585 10.4784 22.3585H11.5849C11.7876 23.1118 12.0862 23.832 12.476 24.5088L11.6927 25.292C11.4692 25.5156 11.4689 25.8784 11.6927 26.1022L14.2247 28.636C14.3322 28.7434 14.4779 28.804 14.6298 28.804H14.63C14.782 28.804 14.9277 28.7436 15.0351 28.6362L15.819 27.852C16.496 28.2419 17.2162 28.5404 17.9693 28.7432V29.8538ZM16.0437 26.6471C15.817 26.5005 15.5187 26.5323 15.3276 26.7232L14.63 27.4208L12.9079 25.6973L13.6048 25.0002C13.7957 24.8093 13.8275 24.511 13.6809 24.2843C13.1615 23.4804 12.7963 22.5993 12.5957 21.6652C12.5389 21.4014 12.3057 21.2127 12.0356 21.2127H11.0516L11.0529 18.7763H12.0356C12.3057 18.7763 12.5389 18.5878 12.5957 18.3238C12.7963 17.3899 13.1615 16.5088 13.6809 15.7049C13.8275 15.4782 13.7957 15.1799 13.6048 14.989L12.9124 14.2964L14.6358 12.5743L15.3276 13.2662C15.5187 13.4571 15.8168 13.4887 16.0437 13.3423C16.8474 12.8229 17.7285 12.4577 18.6626 12.2572C18.9264 12.2003 19.1151 11.9669 19.1151 11.697V10.7186H21.5515V11.6968C21.5515 11.9669 21.74 12.2003 22.004 12.2569C22.9379 12.4577 23.8192 12.8227 24.6229 13.3421C24.8496 13.4887 25.1479 13.4571 25.3388 13.266L26.0308 12.5743L27.7542 14.2964L27.0618 14.9888C26.8707 15.1799 26.8391 15.4782 26.9857 15.7049C27.5051 16.5088 27.8701 17.3899 28.0709 18.3238C28.1275 18.5878 28.3609 18.7763 28.631 18.7763H29.6155V21.2127H28.631C28.3609 21.2127 28.1277 21.4014 28.0709 21.6652C27.8703 22.5991 27.5051 23.4804 26.9857 24.2841C26.8391 24.511 26.8709 24.8093 27.0618 25.0002L27.7587 25.6971L26.0366 27.4205L25.339 26.7232C25.1479 26.5321 24.8496 26.5005 24.6229 26.6471C23.819 27.1665 22.9379 27.5315 22.004 27.7323C21.74 27.7891 21.5515 28.0223 21.5515 28.2924V29.2809H19.1151V28.2924C19.1151 28.0225 18.9264 27.7891 18.6626 27.7323C17.7287 27.5318 16.8476 27.1665 16.0437 26.6471Z" fill="white"/>
<path id="Vector_4" d="M25.0673 20C25.0673 17.3897 22.9438 15.2661 20.3334 15.2661C17.7231 15.2661 15.5995 17.3897 15.5995 20C15.5995 22.6104 17.7231 24.7339 20.3334 24.7339C22.9438 24.7339 25.0673 22.6104 25.0673 20ZM16.7453 20C16.7453 18.0215 18.3549 16.4119 20.3334 16.4119C22.312 16.4119 23.9215 18.0217 23.9215 20C23.9215 21.9784 22.312 23.5881 20.3334 23.5881C18.3549 23.5881 16.7453 21.9786 16.7453 20Z" fill="#172B4C"/>
<path id="Vector_5" d="M25.6087 7.50001C25.7595 7.50001 25.9072 7.43869 26.0137 7.33217C26.1203 7.22497 26.1816 7.07726 26.1816 6.92643C26.1816 6.77649 26.1205 6.62856 26.0137 6.52136C25.9072 6.41484 25.7595 6.35352 25.6087 6.35352C25.4574 6.35352 25.3104 6.41484 25.2038 6.52136C25.0971 6.62856 25.0358 6.77581 25.0358 6.92643C25.0358 7.07771 25.0971 7.22497 25.2038 7.33217C25.3104 7.43869 25.4574 7.50001 25.6087 7.50001Z" fill="#172B4C"/>
<path id="Vector_6" d="M15.0832 32.5098C14.9326 32.5098 14.7847 32.5711 14.6781 32.6776C14.5716 32.7841 14.5103 32.9321 14.5103 33.0827C14.5103 33.234 14.5716 33.3812 14.6781 33.4877C14.7847 33.5943 14.9326 33.6556 15.0832 33.6556C15.2338 33.6556 15.3817 33.5943 15.4883 33.4877C15.5948 33.3812 15.6561 33.2333 15.6561 33.0827C15.6561 32.9321 15.5948 32.7841 15.4883 32.6776C15.3817 32.5711 15.2338 32.5098 15.0832 32.5098Z" fill="#172B4C"/>
</g>
</g>
</svg>
