<svg width="40" height="40" viewBox="0 0 40 40" fill="none" xmlns="http://www.w3.org/2000/svg">
<g id="Group 568">
<g id="Group 393">
<rect id="Rectangle 37" width="40" height="40" rx="20" fill="#FFB800"/>
<g id="Group 31">
<path id="Vector" d="M20.4466 19.4145C20.2677 19.2336 19.9782 19.2336 19.7993 19.4145C19.6209 19.595 19.6209 19.8879 19.7993 20.0688C19.9782 20.2493 20.2677 20.2493 20.4466 20.0688C20.625 19.8879 20.625 19.595 20.4466 19.4145Z" fill="white"/>
<path id="Vector_2" d="M26.2691 13.5248C25.3752 12.6207 23.9281 12.6206 23.0341 13.5248C22.1425 14.4267 22.1425 15.8945 23.0342 16.7971C23.9262 17.6987 25.3773 17.699 26.2691 16.797C27.163 15.8929 27.1631 14.4291 26.2691 13.5248ZM25.6222 16.1425C25.0872 16.6836 24.2164 16.6836 23.6812 16.1426C23.1462 15.6011 23.1462 14.7203 23.6811 14.1792C24.2174 13.6368 25.0858 13.6367 25.6222 14.1792C26.1585 14.7217 26.1586 15.6 25.6222 16.1425Z" fill="white"/>
<g id="Group">
<path id="Vector_3" d="M31.445 8.28935C31.3552 8.19851 31.2326 8.14928 31.1051 8.15414C31.0017 8.15789 28.5388 8.25802 25.6111 9.3047C23.2651 10.1425 21.3097 11.3421 19.7991 12.8701C19.4606 13.2125 19.1313 13.5756 18.8161 13.9527C17.3225 13.0634 16.1256 13.3423 15.369 13.7519C13.6268 14.6949 12.5485 17.2556 12.5485 19.0871C12.5486 19.2743 12.6601 19.443 12.831 19.5146C12.8876 19.5383 12.9471 19.5499 13.006 19.5499C13.1251 19.5499 13.2421 19.5028 13.3296 19.4143C14.2484 18.485 15.3816 18.5431 15.7518 18.5924L15.912 18.7544C15.5967 19.5133 15.3427 20.268 15.1564 21.0019C15.0892 21.2675 15.1119 21.5486 15.2118 21.8057C14.7714 22.011 14.3464 22.3125 13.9764 22.6868C12.7988 23.878 12.5597 26.7809 12.55 26.9039C12.5395 27.0389 12.5879 27.1718 12.6826 27.2676C12.7687 27.3546 12.8852 27.4031 13.006 27.4031C13.018 27.4031 13.03 27.4026 13.0421 27.4017C13.1637 27.392 16.0338 27.1501 17.2114 25.959C17.5812 25.5848 17.8793 25.155 18.0822 24.7096C18.3513 24.8166 18.6283 24.8298 18.8774 24.7653C19.6027 24.5769 20.3486 24.3201 21.099 24.0011L21.2592 24.1631C21.3078 24.5376 21.3653 25.6839 20.4466 26.6131C20.3158 26.7455 20.2766 26.9445 20.3474 27.1174C20.4182 27.2903 20.585 27.4031 20.7701 27.4031C22.5808 27.4031 25.1123 26.3123 26.0446 24.5501C26.4496 23.7849 26.7252 22.5743 25.8461 21.0635C26.2188 20.7448 26.5778 20.4116 26.9164 20.0691C28.427 18.5411 29.6129 16.5632 30.4412 14.1905C31.4761 11.229 31.575 8.73775 31.5787 8.63317C31.5833 8.50476 31.5348 8.38023 31.445 8.28935ZM13.5713 18.0918C13.8555 16.7007 14.681 15.1741 15.8009 14.5678C16.5493 14.1627 17.3673 14.2024 18.2371 14.684C17.4961 15.6698 16.8519 16.7318 16.315 17.8532C16.3082 17.849 16.2258 17.7442 16.0728 17.7093C16.0099 17.695 14.7995 17.4316 13.5713 18.0918ZM16.5644 25.3045C15.9354 25.9408 14.4597 26.2764 13.5271 26.4134C13.6626 25.4699 13.9944 23.9774 14.6234 23.3412C14.9756 22.9849 15.3841 22.7147 15.7946 22.5626L17.3342 24.1198C17.1837 24.5351 16.9167 24.9482 16.5644 25.3045ZM18.6501 23.8687C18.5177 23.903 18.3643 23.8527 18.2503 23.7376C17.6585 23.1389 17.4269 22.9047 17.3543 22.8313C17.2211 22.6965 16.8944 22.3661 16.1728 21.6361C16.0587 21.5205 16.0089 21.3654 16.0427 21.2318C16.1893 20.6545 16.3809 20.0623 16.6139 19.4644L20.3971 23.2911C19.8059 23.5268 19.2205 23.7206 18.6501 23.8687ZM25.2381 24.1134C24.6387 25.2462 23.1295 26.0812 21.7542 26.3686C22.1927 25.5339 22.2894 24.4714 22.1292 23.8271C22.092 23.6775 21.9954 23.6023 21.99 23.5934C23.0987 23.0503 24.1486 22.3987 25.1232 21.6492C25.5993 22.5291 25.6385 23.3566 25.2381 24.1134ZM26.2695 19.4147C25.8573 19.8316 25.4134 20.2344 24.9501 20.6119C23.8365 21.5189 22.6108 22.2871 21.3031 22.8987L17.0018 18.5481C17.6065 17.2253 18.366 15.9855 19.2626 14.8592C19.636 14.3903 20.0342 13.9413 20.4463 13.5245C21.8016 12.1536 23.5508 11.0625 25.6466 10.2772L29.48 14.1546C28.7036 16.2745 27.6249 18.0437 26.2695 19.4147ZM29.8091 13.1786L26.6115 9.94422C28.3536 9.39688 29.8692 9.19193 30.6257 9.11826C30.5529 9.8836 30.3502 11.4166 29.8091 13.1786Z" fill="#172B4C"/>
</g>
<path id="Vector_4" d="M19.1523 27.2673C18.9736 27.0866 18.6839 27.0867 18.5053 27.2674L17.2115 28.5765C17.0329 28.7573 17.033 29.0503 17.2116 29.2309C17.3904 29.4116 17.68 29.4116 17.8586 29.2308L19.1524 27.9217C19.331 27.741 19.331 27.448 19.1523 27.2673Z" fill="white"/>
<path id="Vector_5" d="M12.6827 20.7235C12.504 20.5427 12.2144 20.5427 12.0357 20.7234L10.7414 22.032C10.5628 22.2127 10.5627 22.5057 10.7413 22.6864C10.9199 22.8671 11.2095 22.8673 11.3883 22.6865L12.6825 21.3779C12.8612 21.1972 12.8613 20.9042 12.6827 20.7235Z" fill="white"/>
<path id="Vector_6" d="M15.9175 27.9222C15.739 27.7415 15.4493 27.7415 15.2706 27.9221L12.1716 31.0563C11.9929 31.237 11.9929 31.53 12.1715 31.7107C12.3501 31.8914 12.6398 31.8915 12.8185 31.7107L15.9175 28.5766C16.0962 28.3959 16.0962 28.1029 15.9175 27.9222Z" fill="white"/>
<path id="Vector_7" d="M12.2576 27.9222C12.079 27.7415 11.7893 27.7415 11.6107 27.9221L8.51165 31.0563C8.33296 31.237 8.33296 31.53 8.5116 31.7107C8.69016 31.8914 8.97989 31.8915 9.15858 31.7107L12.2576 28.5766C12.4363 28.3959 12.4363 28.1029 12.2576 27.9222Z" fill="white"/>
<path id="Vector_8" d="M12.0353 23.9953C11.8567 23.8147 11.567 23.8147 11.3884 23.9954L8.2898 27.13C8.11115 27.3108 8.11115 27.6037 8.28985 27.7845C8.4685 27.9652 8.75818 27.9652 8.93683 27.7844L12.0354 24.6498C12.214 24.4691 12.214 24.1761 12.0353 23.9953Z" fill="white"/>
<path id="Vector_9" d="M22.3873 17.451C22.2086 17.2703 21.9191 17.2703 21.7403 17.451L21.0934 18.1053C20.9148 18.286 20.9148 18.579 21.0934 18.7597C21.2721 18.9404 21.5618 18.9404 21.7404 18.7597L22.3873 18.1054C22.566 17.9247 22.566 17.6317 22.3873 17.451Z" fill="white"/>
</g>
</g>
</g>
</svg>
